<?xml version="1.0" encoding="utf-8"?>
<!-- Generator: Adobe Illustrator 23.1.0, SVG Export Plug-In . SVG Version: 6.00 Build 0)  -->
<svg version="1.1" id="Capa_2" xmlns="http://www.w3.org/2000/svg" xmlns:xlink="http://www.w3.org/1999/xlink" x="0px" y="0px"
	 viewBox="0 0 841.9 595.3" style="enable-background:new 0 0 841.9 595.3;" xml:space="preserve">
<path d="M350.9,218.1c30.7-6.4,41.3,4.1,41.3,4.2c1,1.2,2.3,1.8,3.7,1.8c0.6,0,1.2-0.1,1.7-0.3c2-0.7,3.3-2.7,3.3-4.8v-12.7
	c0-0.3,0-0.6-0.1-0.9c-1.1-6-7.6-17.6-24.9-19c-21.1-1.7-28.1,11.8-28.4,12.3c-0.2,0.4-0.4,0.9-0.5,1.4l-2.2,12.2
	c-0.3,1.6,0.3,3.3,1.4,4.5C347.6,218,349.3,218.5,350.9,218.1z M356.8,202.8c1.2-1.7,6.1-7.4,18.4-6.4c12.5,1,15.3,8.6,15.8,10.5
	v3.2c-4.9-2.1-12-4-21.8-4c-3.9,0-8.3,0.3-13.1,1L356.8,202.8z M547.4,359.2l-7.2-44.6c-0.1-0.4-0.2-0.9-0.4-1.3
	c-1.8-10.4-9.3-19.2-20.1-25.1l-6.7-41.2l0-0.2c0,0,0,0,0-0.1c-2.3-14.7-19.2-25.7-39.3-25.7c-22.2,0-39.6,12.8-39.6,29.1
	c0,0.6,0,1.2,0.1,1.9l0,0.7c-3.3-0.5-7.8-0.9-13.3-0.9s-9.9,0.4-13.3,0.9l0-0.7c0.1-0.7,0.1-1.3,0.1-1.9c0-16.3-17.4-29.1-39.6-29.1
	c-20.2,0-37,11.1-39.3,25.8c0,0,0,0.1,0,0.1l-6.7,41.3c-10.8,5.8-18.3,14.7-20.1,25.1c-0.2,0.4-0.3,0.8-0.4,1.3l-7.2,44.6
	c-0.9,3-1.4,6.1-1.4,9.2c0,22.4,24.2,40.5,54,40.5c29.6,0,53.7-18,53.9-40.2l1.1-16.7c4.2,0.8,10.4,1.6,18.9,1.6s14.7-0.8,18.9-1.6
	l1.1,16.7c0.2,22.2,24.3,40.2,53.9,40.2c29.8,0,54-18.2,54-40.5C548.9,365.3,548.4,362.2,547.4,359.2z M347,399
	c-24.2,0-44-13.7-44-30.5c0-2.2,0.4-4.4,1-6.5c0-0.1,0-0.1,0.1-0.2c4.1-12.5,19.3-21.9,37.2-23.6c0,0,0.1,0,0.1,0
	c0.5,0,1.1-0.1,1.6-0.1c0.3,0,0.6,0,0.8,0c0.4,0,0.7,0,1.1-0.1c0.7,0,1.4,0,2,0c24.2,0,44,13.7,44,30.5C391,385.3,371.2,399,347,399
	z M392.5,345.4l-0.1,1.2c-0.1-0.1-0.2-0.2-0.3-0.3c-0.4-0.5-0.8-0.9-1.3-1.4c-0.2-0.2-0.3-0.3-0.5-0.5c-0.6-0.6-1.2-1.2-1.9-1.8
	c-0.1-0.1-0.2-0.2-0.3-0.3c-0.6-0.5-1.1-1-1.7-1.5c-0.2-0.2-0.4-0.3-0.6-0.5c-0.5-0.4-1-0.8-1.5-1.2c-0.2-0.2-0.5-0.3-0.7-0.5
	c-0.6-0.4-1.3-0.9-1.9-1.3c-0.1-0.1-0.2-0.2-0.4-0.2c-0.8-0.5-1.6-1-2.4-1.4c-0.2-0.1-0.4-0.2-0.6-0.3c-0.6-0.3-1.3-0.7-1.9-1
	c-0.3-0.1-0.5-0.3-0.8-0.4c-0.6-0.3-1.3-0.6-1.9-0.9c-0.2-0.1-0.5-0.2-0.7-0.3c-0.9-0.4-1.8-0.7-2.7-1.1c-0.1,0-0.1,0-0.2-0.1
	c-0.9-0.3-1.7-0.6-2.6-0.9c-0.3-0.1-0.6-0.2-0.9-0.3c-0.7-0.2-1.4-0.4-2.1-0.6c-0.3-0.1-0.6-0.2-0.9-0.2c-0.8-0.2-1.6-0.4-2.4-0.5
	c-0.2,0-0.4-0.1-0.6-0.1c-1-0.2-2-0.4-3-0.5c-0.3,0-0.5-0.1-0.8-0.1c-0.8-0.1-1.6-0.2-2.4-0.3c-0.3,0-0.7-0.1-1-0.1
	c-0.7-0.1-1.5-0.1-2.3-0.2c-0.3,0-0.7,0-1-0.1c-1.1,0-2.1-0.1-3.2-0.1c-0.9,0-1.9,0-2.8,0.1c-0.6,0-1.1,0.1-1.7,0.1
	c-0.4,0-0.7,0-1.1,0.1c-0.8,0.1-1.6,0.1-2.5,0.2c-0.1,0-0.1,0-0.2,0c-12.1,1.4-23,5.8-31.2,12.3l3.7-23.1c0.2-0.5,0.4-1,0.4-1.5
	c1-8.2,7.6-15.4,17.2-20c0.8-0.4,1.6-0.7,2.5-1.1c0.2-0.1,0.3-0.1,0.5-0.2c0.7-0.3,1.4-0.5,2.1-0.8c0.3-0.1,0.6-0.2,0.9-0.3
	c0.6-0.2,1.1-0.4,1.7-0.5c0.3-0.1,0.7-0.2,1.1-0.3c0.7-0.2,1.4-0.4,2.1-0.5c0.4-0.1,0.8-0.2,1.2-0.2c0.6-0.1,1.2-0.2,1.8-0.3
	c0.4-0.1,0.8-0.1,1.2-0.2c0.6-0.1,1.3-0.2,2-0.3c0.3,0,0.6-0.1,0.9-0.1c0.9-0.1,1.7-0.2,2.6-0.2c0.2,0,0.4,0,0.7,0
	c1,0,1.9-0.1,2.9-0.1c20.8,0,38.6,10.5,41.1,24.1L392.5,345.4z M397.7,251.3c0,0.1,0,0.1,0,0.2l-0.4,7.1l-2.1,38.1
	c-1.7-1.7-3.5-3.3-5.5-4.8c-0.1,0-0.1-0.1-0.2-0.1c-2.1-1.5-4.3-2.9-6.8-4.1c-0.1,0-0.2-0.1-0.3-0.1c-1.6-0.8-3.3-1.6-5-2.2
	c-0.1,0-0.1-0.1-0.2-0.1c-0.8-0.3-1.6-0.6-2.4-0.9c-0.1,0-0.3-0.1-0.4-0.1c-1.8-0.6-3.6-1.1-5.4-1.5c-0.2,0-0.3-0.1-0.5-0.1
	c-0.8-0.2-1.5-0.3-2.3-0.5c-0.2,0-0.4-0.1-0.7-0.1c-0.9-0.2-1.8-0.3-2.8-0.4c0,0,0,0,0,0c-0.9-0.1-1.9-0.2-2.9-0.3
	c-0.3,0-0.5,0-0.8-0.1c-0.7-0.1-1.5-0.1-2.2-0.1c-0.3,0-0.6,0-0.8,0c-1,0-2-0.1-2.9-0.1c-0.8,0-1.7,0-2.5,0c-0.2,0-0.4,0-0.6,0
	c-0.7,0-1.3,0.1-2,0.1c-0.2,0-0.4,0-0.5,0c-0.7,0.1-1.3,0.1-2,0.2c-0.1,0-0.3,0-0.4,0.1c-0.7,0.1-1.4,0.2-2.1,0.3
	c-0.1,0-0.2,0-0.3,0c-0.8,0.1-1.5,0.2-2.3,0.4c0,0-0.1,0-0.1,0c-2.5,0.5-4.9,1-7.2,1.7l5.7-35.2c0,0,0,0,0,0c0,0,0-0.1,0-0.1
	c1.5-9.7,14.4-17.3,29.4-17.3c16,0,29.6,8.8,29.6,19.1C397.8,250.6,397.8,250.9,397.7,251.3z M420.9,343.7c-8.8,0-14.8-0.9-18.2-1.7
	l1.2-18.1c0.4-1.8,0.6-3.7,0.6-5.6c0-0.6,0-1.2-0.1-1.8l0-0.7c0,0,0,0,0,0c0,0,0,0,0,0l2.6-52.7c2.9-0.5,7.6-1.1,13.8-1.1
	c6.1,0,10.9,0.6,13.8,1.1l2.6,52.7c0,0,0,0,0,0c0,0,0,0,0,0l0,0.7c0,0.6-0.1,1.2-0.1,1.8c0,1.9,0.2,3.7,0.6,5.6l1.2,18.1
	C435.7,342.8,429.7,343.7,420.9,343.7z M444.5,258.7l-0.4-7.1c0-0.1,0-0.1,0-0.2c0-0.4-0.1-0.8-0.1-1.1c0-10.4,13.5-19.1,29.6-19.1
	c15,0,27.9,7.6,29.4,17.3l5.8,35.3c-2.3-0.7-4.7-1.3-7.2-1.7c0,0-0.1,0-0.1,0c-0.7-0.1-1.5-0.3-2.3-0.4c-0.1,0-0.2,0-0.3,0
	c-0.7-0.1-1.4-0.2-2.1-0.3c-0.1,0-0.3,0-0.4-0.1c-0.7-0.1-1.3-0.1-2-0.2c-0.2,0-0.4,0-0.5,0c-0.7,0-1.3-0.1-2-0.1
	c-0.2,0-0.4,0-0.6,0c-0.8,0-1.7,0-2.5,0c-1,0-2,0-2.9,0.1c-0.3,0-0.6,0-0.8,0c-0.7,0-1.5,0.1-2.2,0.1c-0.3,0-0.5,0-0.8,0.1
	c-1,0.1-1.9,0.2-2.9,0.3c0,0,0,0-0.1,0c-0.9,0.1-1.8,0.3-2.8,0.4c-0.2,0-0.5,0.1-0.7,0.1c-0.8,0.1-1.5,0.3-2.3,0.5
	c-0.2,0-0.3,0.1-0.5,0.1c-1.9,0.4-3.7,0.9-5.4,1.5c-0.2,0-0.3,0.1-0.5,0.2c-0.8,0.3-1.6,0.5-2.4,0.8c-0.1,0-0.1,0.1-0.2,0.1
	c-1.7,0.7-3.4,1.4-5,2.2c-0.1,0-0.2,0.1-0.3,0.1c-0.8,0.4-1.6,0.8-2.3,1.2c0,0,0,0,0,0c-1.6,0.9-3,1.9-4.4,2.9
	c-0.1,0-0.1,0.1-0.2,0.1c-2,1.5-3.9,3.1-5.5,4.8L444.5,258.7z M449.5,346.6l-0.1-1.2l-1.7-30.5c2.6-13.6,20.3-24.1,41.1-24.1
	c1,0,1.9,0,2.9,0.1c0.2,0,0.5,0,0.7,0c0.9,0,1.8,0.1,2.6,0.2c0.3,0,0.6,0.1,0.9,0.1c0.7,0.1,1.3,0.2,2,0.3c0.4,0.1,0.8,0.1,1.2,0.2
	c0.6,0.1,1.2,0.2,1.8,0.3c0.4,0.1,0.8,0.2,1.2,0.2c0.7,0.2,1.4,0.3,2.1,0.5c0.4,0.1,0.7,0.2,1.1,0.3c0.6,0.2,1.2,0.3,1.7,0.5
	c0.3,0.1,0.6,0.2,0.9,0.3c0.7,0.3,1.4,0.5,2.1,0.8c0.2,0.1,0.3,0.1,0.5,0.2c0.8,0.3,1.7,0.7,2.5,1.1c9.6,4.6,16.2,11.8,17.2,20
	c0.1,0.5,0.2,1,0.4,1.5l3.7,23.1c-8.1-6.5-19-10.9-31.2-12.3c-0.1,0-0.1,0-0.2,0c-0.8-0.1-1.6-0.2-2.5-0.2c-0.4,0-0.7,0-1.1-0.1
	c-0.6,0-1.1-0.1-1.7-0.1c-0.9,0-1.9-0.1-2.8-0.1c-1.1,0-2.2,0-3.2,0.1c-0.3,0-0.7,0-1,0.1c-0.8,0-1.5,0.1-2.3,0.2
	c-0.3,0-0.7,0.1-1,0.1c-0.8,0.1-1.6,0.2-2.4,0.3c-0.3,0-0.5,0.1-0.8,0.1c-1,0.2-2,0.3-3,0.5c-0.2,0-0.4,0.1-0.6,0.1
	c-0.8,0.2-1.6,0.3-2.4,0.5c-0.3,0.1-0.6,0.2-0.9,0.2c-0.7,0.2-1.4,0.4-2.1,0.6c-0.3,0.1-0.6,0.2-0.9,0.3c-0.9,0.3-1.7,0.6-2.6,0.9
	c-0.1,0-0.1,0-0.2,0.1c-0.9,0.3-1.8,0.7-2.7,1.1c-0.2,0.1-0.5,0.2-0.7,0.3c-0.6,0.3-1.3,0.6-1.9,0.9c-0.3,0.1-0.5,0.3-0.8,0.4
	c-0.6,0.3-1.3,0.6-1.9,1c-0.2,0.1-0.4,0.2-0.6,0.3c-0.8,0.5-1.6,0.9-2.4,1.4c-0.1,0.1-0.2,0.2-0.4,0.2c-0.7,0.4-1.3,0.8-1.9,1.3
	c-0.2,0.2-0.5,0.3-0.7,0.5c-0.5,0.4-1,0.8-1.5,1.2c-0.2,0.2-0.4,0.3-0.6,0.5c-0.6,0.5-1.2,1-1.7,1.5c-0.1,0.1-0.2,0.2-0.3,0.3
	c-0.6,0.6-1.3,1.2-1.9,1.8c-0.2,0.2-0.3,0.3-0.5,0.5c-0.4,0.5-0.9,0.9-1.3,1.4C449.7,346.4,449.6,346.5,449.5,346.6z M494.9,399
	c-24.2,0-44-13.7-44-30.5c0-16.8,19.7-30.5,44-30.5c0.7,0,1.4,0,2,0c0.4,0,0.7,0,1.1,0.1c0.3,0,0.6,0,0.8,0c0.5,0,1.1,0.1,1.6,0.1
	c0,0,0.1,0,0.1,0c17.9,1.7,33.1,11.1,37.2,23.6c0,0.1,0,0.1,0.1,0.2c0.7,2.1,1,4.3,1,6.5C538.9,385.3,519.1,399,494.9,399z
	 M444.2,223.8c0.6,0.2,1.2,0.3,1.8,0.3c1.4,0,2.7-0.6,3.7-1.7c0.1-0.1,10.7-10.7,41.4-4.3c1.6,0.3,3.3-0.1,4.5-1.3
	c1.2-1.2,1.7-2.8,1.4-4.5l-2.2-12.2c-0.1-0.5-0.2-0.9-0.5-1.4c-0.3-0.6-7.3-14-28.4-12.3c-17.3,1.4-23.9,13-24.9,19
	c-0.1,0.3-0.1,0.6-0.1,0.9V219C440.9,221.1,442.2,223.1,444.2,223.8z M450.9,206.9c0.5-2,3.4-9.5,15.8-10.5
	c12.3-1,17.2,4.7,18.4,6.4l0.8,4.3c-16.9-2.5-28.1,0-34.9,3V206.9z"/>
</svg>
