<?xml version="1.0" encoding="utf-8"?>
<!-- Generator: Adobe Illustrator 23.1.0, SVG Export Plug-In . SVG Version: 6.00 Build 0)  -->
<svg version="1.1" id="Capa_2" xmlns="http://www.w3.org/2000/svg" xmlns:xlink="http://www.w3.org/1999/xlink" x="0px" y="0px"
	 viewBox="0 0 841.9 595.3" style="enable-background:new 0 0 841.9 595.3;" xml:space="preserve">
<path d="M704.6,183c-6.2-19.8-20.4-36.2-38-44c-26.6-11.8-65.8-15.3-88.7,13.7c-3.8,4.8-3,11.7,1.8,15.5c4.8,3.8,11.7,3,15.5-1.8
	c15.1-19.1,43.1-15.8,62.5-7.2c11.9,5.3,21.6,16.7,25.9,30.5c3.5,11.1,5,28.7-7.4,49.1c-16.9,27.7-48.5,23.2-72.1,14.6
	c-14.4-5.3-33-17.7-45.3-26.7c-13-12.2-31.1-20.8-53.8-25.6c-29.2-6.1-76.4-5.9-100.6-3.8c-12.9,1.1-36.1-1.3-56.5-3.4
	c-17.5-1.8-32.5-3.4-42.1-3.1c-18.7,0.7-42,6.3-56,9.7c-1.9,0.5-3.7,0.9-5.2,1.2c-5.8,1.4-14.8-0.2-22.1-1.4
	c-5.2-0.9-9.6-1.6-13.6-1.6c-4.1,0-10.3,1.8-16.9,4.8l-3.3-3.3c-4.3-4.3-11.3-4.3-15.6,0c-4.1,4.1-4.3,10.7-0.4,15.1
	c-6.7,5.4-12,11.6-13.9,18c-2.4,8.3-15.5,35.7-23.8,52.2c-2.5,5.1-0.8,11.3,4.1,14.3c2.3,1.4,22.3,13.7,27.5,16.3
	c6.4,3.2,13,0.3,28.8-6.6c4.6-2,9.4-4.1,11.9-5c3.6-1.1,18.6-2,26.8-2c2.1,6.1,6,17.9,12.1,37.1C219,368.1,201.3,386.7,199,389
	c-2.4,2.4-6.3,6.3-9.7,47.9h-44.4c-6.1,0-11,4.9-11,11s4.9,11,11,11h44.5c0.6,1.2,1.4,2.3,2.5,3.2c2,1.8,4.6,2.8,7.3,2.8
	c0.6,0,1.3-0.1,1.9-0.2l22.9-4.1c1.6-0.3,3-0.9,4.3-1.8h47.3h34.2h108.7h28.4h189c6.1,0,11-4.9,11-11s-4.9-11-11-11h-38
	c7.3-13.1,16.2-33.6,12.4-45c-3.7-11.2-13.2-37.4-19.2-50.2c-2-4.2-2.7-14.4-3.5-25.2c-1-13.6-2.3-30.4-6.3-49.6
	c5.2,2.8,10.4,5.2,15.3,7c10.3,3.8,25.1,7.9,40.6,7.9c2.9,0,5.7-0.1,8.6-0.4c21.1-2.2,38.1-13,49.2-31.2
	C708,228.7,711.4,204.9,704.6,183z M284.8,395.3c0.6-0.4,1.2-0.8,1.8-1.2c0.3,3.2,0.4,5.8,0.3,7.2c-1.6,3.9-9.8,20-18,35.7h-27.6
	c5.7-10.5,11-19.7,13.5-23C261.9,410.3,276.4,401,284.8,395.3z M293.7,436.9c6.2-12,13-25.4,14.2-29.1c1.6-4.7,1.2-14.4-1.1-29
	c7-6,8-8.6,8.8-10.4c0.9-2.1,2-4.9,1.1-20.4c4.7,0.4,10.5,0.8,17.1,1c-1,6-1.9,12.8-1.7,17.2c0.1,1.5,0.2,3.4,0.3,5.5
	c0.3,5.7,1.3,20.6,0.2,24.7c-2.1,4.5-15.7,23.5-28.5,40.4H293.7z M423.8,340.9l8.2,52.8l-20.4,43.2h-79.7
	c10.7-14.6,20.3-28.5,21.9-33.6c2.2-7,1.7-19,0.8-32.9c-0.1-2-0.2-3.7-0.3-5.1c-0.1-3,0.8-9.7,2-16c8.2-0.1,17.1-0.5,26.4-1.3
	C395.9,346.9,410.2,344.2,423.8,340.9z M435.8,436.9l17.4-36.9c0.9-2,1.3-4.2,0.9-6.4l-9-58.5c14.4-4.2,26.4-8.4,33.2-10.9
	c2.4,1.9,5.4,4.4,8.7,7.2L475,359.3c-0.5,1.2-0.8,2.5-0.9,3.8l-2,34.7l-30.6,39.1H435.8z M469.4,436.9l22.1-28.3
	c1.4-1.8,2.2-3.9,2.3-6.2l2-36.2l8.5-19.5c1.2,1.1,2.3,2.2,3.3,3.3c7,7.1,19,26.7,26.9,39.7c3.7,6.1,6.7,11,8.8,14
	c0.6,4.4-2,17.4-3.3,23.8c-0.7,3.6-1.3,6.7-1.8,9.4H469.4z M559.6,270.9c3.9,17.9,5.1,34.2,6,47.2c1.1,14.5,1.9,25,5.6,32.9
	c5.5,11.6,14.5,36.7,18.1,47.3c0.4,6.9-10.6,30.1-16.5,37.1H561c0.2-1.3,0.5-2.5,0.7-3.7c3.9-19.7,5.9-32.2,0.2-40
	c-1.6-2.1-4.9-7.7-8.5-13.6c-9.4-15.5-21.2-34.7-30-43.6c-11.9-12.1-35.3-30.6-36.3-31.4c-3.1-2.4-7.2-3-10.8-1.6
	c-0.5,0.2-54.5,21.1-95.6,24.5c-28.8,2.4-53.4,0.9-65.8-0.2c0-0.3-0.1-0.6-0.1-0.8c-1.6-16.9-3.6-33.1-3.6-33.2
	c-0.7-6-6.2-10.3-12.3-9.6c-6,0.7-10.3,6.2-9.6,12.3c1.7,14,3.4,29.4,4.4,42.1c0,0.1,0,0.3,0,0.4c0.9,10.6,1.4,19.2,1.1,23.1
	c-1.3,1.3-3.3,3-5.9,5c-0.6,0.4-1.2,0.8-1.7,1.3c-13.5,10.3-38,26-43,28.1c-3.5,1.4-7.8,3.1-29.7,45.5l-3.6,0.6
	c1.4-16.4,3.2-32.3,4.7-37.4c7-7.2,34.6-36.3,46.9-49.3c5.2-5.4,6.9-13.3,4.7-20.4c-14.1-44.1-15-45.6-16.2-47.3
	c-3.6-5.4-8.9-6.5-26.9-5.7c-4.1,0.2-18,0.9-23.8,2.8c-3.6,1.2-8.6,3.4-14,5.8c-3.8,1.7-9.6,4.2-13,5.5c-3.5-2-9-5.3-14.3-8.5
	c6.5-13.4,17.9-37.2,20.7-46.8c0.4-1.4,4-6,12.5-11.3c7.8-4.9,14.7-7.3,16.6-7.5c2.1,0,6,0.7,9.8,1.3c9.2,1.6,20.7,3.5,30.8,1.1
	c1.6-0.4,3.4-0.8,5.3-1.3c13.1-3.2,35.1-8.5,51.6-9.1c8-0.3,23.1,1.3,39,3c22.5,2.4,45.8,4.8,60.7,3.5c22.2-1.9,67.5-2.2,94.2,3.4
	c12.6,2.6,23.2,6.6,31.9,11.7c1.5,1.2,6,4.7,12.2,9.2C552.2,251,557.3,260.1,559.6,270.9z"/>
</svg>
