<svg xmlns="http://www.w3.org/2000/svg" fill="none" viewBox="0 0 25 24" height="24" width="25">
<path fill="#8D9597" d="M17.4897 1.23121C17.6407 1.28135 17.7656 1.38941 17.837 1.53164C17.9083 1.67386 17.9202 1.83859 17.8701 1.98961L17.2701 3.78961C17.2198 3.94078 17.1116 4.06579 16.9691 4.13713C16.8266 4.20847 16.6617 4.22029 16.5105 4.17001C16.3593 4.11972 16.2343 4.01144 16.163 3.86899C16.0917 3.72654 16.0798 3.56158 16.1301 3.41041L16.7301 1.61041C16.7551 1.53561 16.7945 1.46646 16.8462 1.40691C16.8979 1.34736 16.9608 1.29859 17.0313 1.26337C17.1019 1.22815 17.1787 1.20718 17.2573 1.20167C17.336 1.19615 17.4149 1.20619 17.4897 1.23121ZM21.9261 3.42481C21.9819 3.36902 22.0262 3.3028 22.0563 3.22991C22.0865 3.15702 22.1021 3.0789 22.1021 3.00001C22.1021 2.92112 22.0865 2.843 22.0563 2.77011C22.0262 2.69722 21.9819 2.63099 21.9261 2.57521C21.8703 2.51942 21.8041 2.47517 21.7312 2.44498C21.6583 2.41479 21.5802 2.39925 21.5013 2.39925C21.4224 2.39925 21.3443 2.41479 21.2714 2.44498C21.1985 2.47517 21.1323 2.51942 21.0765 2.57521L18.6765 4.97521C18.6207 5.03092 18.5765 5.09706 18.5462 5.16988C18.516 5.24269 18.5004 5.32075 18.5004 5.39958C18.5003 5.5588 18.5634 5.71154 18.6759 5.82421C18.7884 5.93687 18.9411 6.00023 19.1003 6.00034C19.2595 6.00046 19.4123 5.93731 19.5249 5.82481L21.9249 3.42481H21.9261ZM9.62852 3.77401C9.79604 3.42157 10.047 3.1153 10.3596 2.88173C10.6722 2.64815 11.037 2.49432 11.4224 2.43356C11.8079 2.37281 12.2024 2.40696 12.5717 2.53305C12.9409 2.65915 13.2739 2.87339 13.5417 3.15721L21.4461 11.5332C21.7099 11.8127 21.9027 12.1514 22.0083 12.5209C22.114 12.8904 22.1293 13.2798 22.0531 13.6565C21.9769 14.0331 21.8114 14.386 21.5704 14.6853C21.3295 14.9847 21.0202 15.2219 20.6685 15.3768L15.9441 17.46C16.1192 18.0846 16.1475 18.7412 16.0266 19.3786C15.9058 20.0159 15.6391 20.6166 15.2475 21.1337C14.8559 21.6509 14.3499 22.0704 13.7692 22.3594C13.1885 22.6485 12.5488 22.7993 11.9001 22.8C11.1852 22.8004 10.482 22.6182 9.85722 22.2706C9.23245 21.923 8.7068 21.4217 8.33012 20.814L6.89012 21.4476C6.55931 21.5935 6.19225 21.6363 5.83673 21.5706C5.48122 21.5049 5.15373 21.3337 4.89692 21.0792L3.43052 19.626C3.16536 19.3634 2.9884 19.0248 2.92412 18.6572C2.85984 18.2896 2.91142 17.911 3.07172 17.574L9.62852 3.77521V3.77401ZM9.44372 20.322C9.84199 20.8906 10.4251 21.3034 11.0937 21.4902C11.7623 21.677 12.475 21.6261 13.1102 21.3462C13.7455 21.0664 14.2641 20.5749 14.5776 19.9555C14.891 19.3362 14.98 18.6272 14.8293 17.9496L9.44372 20.322ZM20.9001 7.20001C20.741 7.20001 20.5884 7.26322 20.4759 7.37574C20.3633 7.48827 20.3001 7.64088 20.3001 7.80001C20.3001 7.95914 20.3633 8.11175 20.4759 8.22427C20.5884 8.33679 20.741 8.40001 20.9001 8.40001H22.7001C22.8592 8.40001 23.0119 8.33679 23.1244 8.22427C23.2369 8.11175 23.3001 7.95914 23.3001 7.80001C23.3001 7.64088 23.2369 7.48827 23.1244 7.37574C23.0119 7.26322 22.8592 7.20001 22.7001 7.20001H20.9001Z"></path>
</svg>
