<?xml version="1.0" encoding="utf-8"?>
<!-- Generator: Adobe Illustrator 23.1.0, SVG Export Plug-In . SVG Version: 6.00 Build 0)  -->
<svg version="1.1" id="Capa_2" xmlns="http://www.w3.org/2000/svg" xmlns:xlink="http://www.w3.org/1999/xlink" x="0px" y="0px"
	 viewBox="0 0 841.9 595.3" style="enable-background:new 0 0 841.9 595.3;" xml:space="preserve">
<path d="M548.9,285.1l-37.5-31v-37.5c0-4.4-3.6-8-8-8s-8,3.6-8,8v24.3L428,185.1c-2.7-2.3-6.7-2.3-9.5-0.1L293.1,285
	c-3.2,2.6-3.8,7.3-1.2,10.5c1.5,1.9,3.7,2.8,5.9,2.8c1.6,0,3.3-0.5,4.7-1.6l22.3-17.8v125.4c0,4.1,3.4,7.5,7.5,7.5h177.5
	c4.1,0,7.5-3.4,7.5-7.5v-126l22.2,18.4c3.2,2.6,7.9,2.2,10.6-1C552.6,292.5,552.1,287.8,548.9,285.1z M502.2,396.9H339.7V267
	l83.4-66.5l79,65.4V396.9z"/>
</svg>
