<?xml version="1.0" encoding="utf-8"?>
<!-- Generator: Adobe Illustrator 23.1.0, SVG Export Plug-In . SVG Version: 6.00 Build 0)  -->
<svg version="1.1" id="Capa_2" xmlns="http://www.w3.org/2000/svg" xmlns:xlink="http://www.w3.org/1999/xlink" x="0px" y="0px"
	 viewBox="0 0 841.9 595.3" style="enable-background:new 0 0 841.9 595.3;" xml:space="preserve">
<path d="M524.4,346.7h-75.2c0.8-2.8,1.6-5.7,2.1-8.5c0.4-0.7,0.7-1.6,0.7-2.5c0-0.3,0-0.5-0.1-0.8c1.8-10.7,1.8-21.3-0.1-31.7
	c-2.1-11.3-6.3-22.1-12.7-32.1c0,0,0,0,0,0c-3.3-5.2-7.1-10.1-11.4-14.9c0,0-0.1-0.1-0.1-0.1c-2.9-3-5.7-5.7-8.1-8
	c-14.6-14.3-18.5-18.2-10.9-33.1c6.6-2,11.5-8.1,11.5-15.4c0-8.8-7.2-16-16-16h-80.6c-8.8,0-16,7.2-16,16c0,7.3,4.8,13.4,11.5,15.4
	c7.6,14.9,3.7,18.8-10.9,33.1c-2.4,2.4-5.2,5.1-8.1,8c0,0-0.1,0.1-0.1,0.1c-16.9,18.5-25.6,40.3-25.5,63.5c0,0,0,0,0,0c0,0,0,0,0,0
	c0,1.9,0.1,3.7,0.2,5.6c0.2,2.9,0.5,5.8,1,8.7c-0.2,0.5-0.3,1-0.3,1.6c0,1.2,0.5,2.3,1.2,3.2c5.5,25.9,21.6,51,46.4,71.7
	c0.9,0.8,2,1.2,3.2,1.2h75.4c1.2,0,2.3-0.4,3.2-1.2c2.6-2.2,5.2-4.5,7.6-6.8c6.5,5,14.5,7.9,23.3,7.9h55.4
	c21.1,0,38.3-17.2,38.3-38.3v-21.8C529.4,348.9,527.2,346.7,524.4,346.7z M519.4,361.7h-15.5c-1.7,0-3,1.3-3,3v11.5h-15.6v-11.5
	c0-1.7-1.3-3-3-3h-20.9c-1.7,0-3,1.3-3,3v10h-15.9v-10c0-1.7-1.3-3-3-3h-18.5c-1.7,0-3,1.3-3,3v10h-10.6c0-0.4,0-0.8,0-1.2v-16.8
	h112V361.7z M295.5,278.9h136.7c1.2,2,2.2,4,3.2,6h-12.8c-2.8,0-5,2.2-5,5v24.8h-19.8v-24.8c0-2.8-2.2-5-5-5H363c-2.8,0-5,2.2-5,5
	v24.8h-19.8v-24.8c0-2.8-2.2-5-5-5h-29.8c-2.8,0-5,2.2-5,5v24.8h-13.8C285.3,302.1,289,290.1,295.5,278.9z M284.6,324.7h18.7
	c2.8,0,5-2.2,5-5v-24.8h19.8v24.8c0,2.8,2.2,5,5,5H363c2.8,0,5-2.2,5-5v-24.8h19.8v24.8c0,2.8,2.2,5,5,5h29.8c2.8,0,5-2.2,5-5v-24.8
	h11.8c3.7,11.5,4.8,23.5,3,35.8H285.2C284.9,328.7,284.7,326.7,284.6,324.7z M323.5,193.5h80.6c3.3,0,6,2.7,6,6s-2.7,6-6,6h-80.6
	c-3.3,0-6-2.7-6-6S320.2,193.5,323.5,193.5z M315.1,255.1c13.8-13.6,22.1-21.7,15.1-39.6h67.3c-7,17.8,1.3,26,15.1,39.6
	c2.4,2.3,5,4.9,7.9,7.8c1.8,1.9,3.4,3.9,5,5.9H302.3c1.6-2,3.2-4,5-5.9C310.1,260.1,312.7,257.5,315.1,255.1z M399.7,401.8H328
	c-21.1-18-35.1-39.2-40.8-61.1h153.3c-0.5,2-1.1,4-1.8,6h-36.3c-2.8,0-5,2.2-5,5v21.8c0,8.8,3,16.8,7.9,23.3
	C403.5,398.5,401.6,400.1,399.7,401.8z M491.1,401.8h-55.4c-13.1,0-24.2-9-27.4-21.1h12.7c1.7,0,3-1.3,3-3v-10h12.5v10
	c0,1.7,1.3,3,3,3h21.9c1.7,0,3-1.3,3-3v-10h14.9v11.5c0,1.7,1.3,3,3,3h21.6c1.7,0,3-1.3,3-3v-11.5h12.5v5.8
	C519.4,389.1,506.7,401.8,491.1,401.8z"/>
</svg>
