<svg width="30" height="30" viewBox="0 0 30 30" fill="none" xmlns="http://www.w3.org/2000/svg">
<path d="M18.75 6.25V8.75V6.25ZM18.75 13.75V16.25V13.75ZM18.75 21.25V23.75V21.25ZM6.25 6.25C5.58696 6.25 4.95107 6.51339 4.48223 6.98223C4.01339 7.45107 3.75 8.08696 3.75 8.75V12.5C4.41304 12.5 5.04893 12.7634 5.51777 13.2322C5.98661 13.7011 6.25 14.337 6.25 15C6.25 15.663 5.98661 16.2989 5.51777 16.7678C5.04893 17.2366 4.41304 17.5 3.75 17.5V21.25C3.75 21.913 4.01339 22.5489 4.48223 23.0178C4.95107 23.4866 5.58696 23.75 6.25 23.75H23.75C24.413 23.75 25.0489 23.4866 25.5178 23.0178C25.9866 22.5489 26.25 21.913 26.25 21.25V17.5C25.587 17.5 24.9511 17.2366 24.4822 16.7678C24.0134 16.2989 23.75 15.663 23.75 15C23.75 14.337 24.0134 13.7011 24.4822 13.2322C24.9511 12.7634 25.587 12.5 26.25 12.5V8.75C26.25 8.08696 25.9866 7.45107 25.5178 6.98223C25.0489 6.51339 24.413 6.25 23.75 6.25H6.25Z" stroke="#AFAFAF" stroke-width="2" stroke-linecap="round" stroke-linejoin="round"/>
</svg>
