<?xml version="1.0" encoding="utf-8"?>
<!-- Generator: Adobe Illustrator 23.1.0, SVG Export Plug-In . SVG Version: 6.00 Build 0)  -->
<svg version="1.1" id="Capa_2" xmlns="http://www.w3.org/2000/svg" xmlns:xlink="http://www.w3.org/1999/xlink" x="0px" y="0px"
	 viewBox="0 0 841.9 595.3" style="enable-background:new 0 0 841.9 595.3;" xml:space="preserve">
<path d="M505.9,306.9c0-20.2-7.2-39.8-20.3-55.1c-12.5-14.7-29.7-24.6-48.5-28.2c-3.8-22.3-12.7-38.2-13.1-39.1l-3.9-7l-3.9,7
	c-0.5,0.8-9.4,17-13.2,39.5c-34.9,7.6-61.1,36.5-66,71.3h-0.3v2.6c-0.3,3-0.5,6-0.5,9v25.9c0,3.1,0.2,6.1,0.5,9.1v75.3h75.3
	c3,0.3,6.1,0.5,9.1,0.5s6.1-0.2,9.1-0.5h75.3V342c0.3-3,0.5-6.1,0.5-9.1V306.9z M494.4,304.3v13.2H346v-10.6c0-0.9,0-1.8,0.1-2.6
	H494.4z M492.4,355.2c-11.8-9.5-17.4-21.8-19.7-28.7h23.2v6.3C495.9,340.6,494.7,348.2,492.4,355.2z M369.2,326.5
	c-2.3,6.9-7.9,19.2-19.8,28.7c-2.2-7.1-3.4-14.6-3.4-22.4v-6.3H369.2z M378.6,326.5h84.6c2.2,7.5,8.8,24.9,25.8,37.4
	c-11.8,25.8-37.9,43.8-68.1,43.8s-56.3-18-68.1-43.8C369.9,351.5,376.5,334.1,378.6,326.5z M495,295.3h-64.4
	c6.2-12.7,8.2-36.2,8.2-52.1c0-3.1-0.1-6.2-0.4-9.2C468.2,241.1,490.3,265.4,495,295.3z M419.9,197.2c4,9.6,9.8,26.7,9.8,46
	c0,30.9-6.2,49.9-9.8,52c-3.5-2.1-9.8-21.1-9.8-52C410.2,224,415.9,206.9,419.9,197.2z M401.5,234.6c-0.2,2.8-0.3,5.7-0.3,8.7
	c0,15.8,1.9,39.3,8.2,52.1H347C351.5,266.4,372.9,242.2,401.5,234.6z M345.5,408.3v-36.5c8.1,15.6,20.9,28.4,36.5,36.5H345.5z
	 M496.4,408.3h-36.5c15.6-8.1,28.4-20.9,36.5-36.5V408.3z"/>
</svg>
