<svg width="375" height="812" viewBox="0 0 375 812" fill="none" xmlns="http://www.w3.org/2000/svg">
<path d="M377.067 665.406L308.813 783.626L240.559 665.406H377.067Z" stroke="#FFF1DD" stroke-width="2"/>
<path d="M308.813 753.301L266.821 680.569H350.804L308.813 753.301Z" fill="#FCF0DF"/>
<path d="M142.067 665.406L73.813 783.626L5.55891 665.406H142.067Z" stroke="#FFF1DD" stroke-width="2"/>
<path d="M73.8126 753.301L31.8209 680.569H115.804L73.8126 753.301Z" fill="#FCF0DF"/>
<path d="M384.22 355.067L266 286.813L384.22 218.559L384.22 355.067Z" stroke="#FFF1DD" stroke-width="2"/>
<path d="M296.325 286.813L369.057 244.821V328.804L296.325 286.813Z" fill="#FCF0DF"/>
<path d="M-6.59353 218.559L111.626 286.813L-6.59353 355.067L-6.59353 218.559Z" stroke="#FFF1DD" stroke-width="2"/>
<path d="M81.301 286.813L8.56933 328.805V244.822L81.301 286.813Z" fill="#FCF0DF"/>
<path d="M122.559 785.22L190.813 667L259.067 785.22H122.559Z" stroke="#FFF1DD" stroke-width="2"/>
<path d="M190.813 697.325L232.805 770.057H148.822L190.813 697.325Z" fill="#FCF0DF"/>
<path d="M-43.4411 102.22L24.813 -16L93.0671 102.22H-43.4411Z" stroke="#FFF1DD" stroke-width="2"/>
<path d="M24.8134 14.325L66.805 87.0567L-17.1783 87.0567L24.8134 14.325Z" fill="#FCF0DF"/>
<path d="M390.705 87.1473L264.415 138.968L282.682 3.68748L390.705 87.1473Z" stroke="#FFF1DD" stroke-width="2"/>
<path d="M282.956 114.971L294.194 31.7426L360.652 83.0892L282.956 114.971Z" fill="#FCF0DF"/>
</svg>
