<svg xmlns="http://www.w3.org/2000/svg" fill="none" viewBox="0 0 30 30" height="30" width="30">
<circle fill="#00C7FE" r="15" cy="15" cx="15"></circle>
<path fill="#F7F7F7" d="M22.7193 7.57C18.1293 8.25 14.7893 5 14.5193 5C10.6093 7.79 6.26927 7.56 6.26927 7.56C4.24927 18.57 14.2493 24.76 14.4893 24.76C24.5893 20.93 22.9393 7.65 22.7193 7.57ZM17.8693 13.11L14.1603 17.23L14.0403 17.371C13.9303 17.471 13.7703 17.53 13.6003 17.53C13.4303 17.53 13.2803 17.47 13.1603 17.371L13.1303 17.331L11.0193 15.4L10.9793 15.36C10.8493 15.24 10.7693 15.07 10.7693 14.88C10.7693 14.51 11.0693 14.2 11.4493 14.2C11.5993 14.2 11.7293 14.25 11.8393 14.33L11.9393 14.42L13.5993 15.9L16.9493 12.14C17.0693 11.99 17.2593 11.89 17.4693 11.89C17.8493 11.89 18.1493 12.19 18.1493 12.57C18.1493 12.79 18.0393 12.99 17.8693 13.11Z"></path>
</svg>
