<svg width="270" height="270" viewBox="0 0 270 270" fill="none" xmlns="http://www.w3.org/2000/svg">
<path d="M14.3598 117.339L1.8374 79.5213L40.8498 87.5854L14.3598 117.339Z" stroke="#FFB240" stroke-width="2"/>
<path d="M91.4947 30.7008L78.9723 -7.11704L117.985 0.947116L91.4947 30.7008Z" stroke="#FFB240" stroke-width="2"/>
<path d="M-4.57481 85.9715L7.94763 123.789L-31.0648 115.725L-4.57481 85.9715Z" stroke="#FFB240" stroke-width="2"/>
<path d="M72.5602 -0.666851L85.0826 37.151L46.0702 29.0868L72.5602 -0.666851Z" stroke="#FFB240" stroke-width="2"/>
<path d="M52.9273 74.0199L40.4049 36.202L79.4173 44.2662L52.9273 74.0199Z" stroke="#FFB240" stroke-width="2"/>
<path d="M46.38 41.5217L71.8229 46.781L54.5468 66.1855L46.38 41.5217Z" fill="#FFB240"/>
<path d="M-24.2077 160.658L-36.7301 122.84L2.28232 130.905L-24.2077 160.658Z" stroke="#FFB240" stroke-width="2"/>
<path d="M33.9927 42.6524L46.5151 80.4702L7.50271 72.406L33.9927 42.6524Z" stroke="#FFB240" stroke-width="2"/>
<path d="M40.5401 75.1505L15.0972 69.8913L32.3732 50.4867L40.5401 75.1505Z" fill="#FFB240"/>
<path d="M111.128 -43.9859L123.65 -6.16811L84.6376 -14.2323L111.128 -43.9859Z" stroke="#FFB240" stroke-width="2"/>
<path d="M-1.77504 256.977L-14.2975 219.16L24.7149 227.224L-1.77504 256.977Z" stroke="#FFB240" stroke-width="2"/>
<path d="M75.3598 170.339L62.8374 132.521L101.85 140.585L75.3598 170.339Z" stroke="#FFB240" stroke-width="2"/>
<path d="M152.495 83.7008L139.972 45.883L178.985 53.9471L152.495 83.7008Z" stroke="#FFB240" stroke-width="2"/>
<path d="M56.4252 138.971L68.9476 176.789L29.9352 168.725L56.4252 138.971Z" stroke="#FFB240" stroke-width="2"/>
<path d="M133.56 52.3331L146.083 90.151L107.07 82.0868L133.56 52.3331Z" stroke="#FFB240" stroke-width="2"/>
<path d="M210.695 -34.3052L223.218 3.51267L184.205 -4.55149L210.695 -34.3052Z" stroke="#FFB240" stroke-width="2"/>
<path d="M191.062 40.3816L178.54 2.56374L217.552 10.6279L191.062 40.3816Z" stroke="#FFB240" stroke-width="2"/>
<path d="M184.515 7.88344L209.958 13.1427L192.682 32.5472L184.515 7.88344Z" fill="#FFB240"/>
<path d="M113.927 127.02L101.405 89.202L140.417 97.2662L113.927 127.02Z" stroke="#FFB240" stroke-width="2"/>
<path d="M107.38 94.5217L132.823 99.781L115.547 119.186L107.38 94.5217Z" fill="#FFB240"/>
<path d="M36.7923 213.658L24.2699 175.84L63.2823 183.905L36.7923 213.658Z" stroke="#FFB240" stroke-width="2"/>
<path d="M30.245 181.16L55.6879 186.419L38.4118 205.824L30.245 181.16Z" fill="#FFB240"/>
<path d="M17.8577 182.291L30.3801 220.108L-8.6323 212.044L17.8577 182.291Z" stroke="#FFB240" stroke-width="2"/>
<path d="M24.405 214.789L-1.03784 209.53L16.2382 190.125L24.405 214.789Z" fill="#FFB240"/>
<path d="M94.9927 95.6524L107.515 133.47L68.5027 125.406L94.9927 95.6524Z" stroke="#FFB240" stroke-width="2"/>
<path d="M101.54 128.15L76.0972 122.891L93.3732 103.487L101.54 128.15Z" fill="#FFB240"/>
<path d="M172.128 9.01406L184.65 46.8319L145.638 38.7677L172.128 9.01406Z" stroke="#FFB240" stroke-width="2"/>
<path d="M178.675 41.5122L153.232 36.253L170.508 16.8484L178.675 41.5122Z" fill="#FFB240"/>
<path d="M61.9685 -48.9247L74.491 -11.1068L35.4785 -19.171L61.9685 -48.9247Z" stroke="#FFB240" stroke-width="2"/>
<path d="M-15.1664 37.7136L-2.64392 75.5315L-41.6563 67.4673L-15.1664 37.7136Z" stroke="#FFB240" stroke-width="2"/>
<path d="M42.3357 25.7621L29.8132 -12.0558L68.8257 -3.9916L42.3357 25.7621Z" stroke="#FFB240" stroke-width="2"/>
<path d="M3.76829 69.0813L-8.75415 31.2635L30.2583 39.3276L3.76829 69.0813Z" stroke="#FFB240" stroke-width="2"/>
<path d="M-2.77907 36.5831L22.6638 41.8424L5.38774 61.2469L-2.77907 36.5831Z" fill="#FFB240"/>
<path d="M22.6542 -6.27049L35.1766 31.5473L-3.83579 23.4832L22.6542 -6.27049Z" stroke="#FFB240" stroke-width="2"/>
<path d="M29.2016 26.2276L3.75867 20.9684L21.0347 1.56384L29.2016 26.2276Z" fill="#FFB240"/>
<path d="M122.969 4.07534L135.491 41.8932L96.4785 33.829L122.969 4.07534Z" stroke="#FFB240" stroke-width="2"/>
<path d="M45.8336 90.7136L58.3561 128.531L19.3437 120.467L45.8336 90.7136Z" stroke="#FFB240" stroke-width="2"/>
<path d="M103.336 78.7621L90.8132 40.9442L129.826 49.0084L103.336 78.7621Z" stroke="#FFB240" stroke-width="2"/>
<path d="M26.2008 165.4L13.6783 127.583L52.6908 135.647L26.2008 165.4Z" stroke="#FFB240" stroke-width="2"/>
<path d="M-12.3667 208.72L-24.8892 170.902L14.1233 178.966L-12.3667 208.72Z" stroke="#FFB240" stroke-width="2"/>
<path d="M-18.9141 176.221L6.5288 181.481L-10.7473 200.885L-18.9141 176.221Z" fill="#FFB240"/>
<path d="M64.7683 122.081L52.2458 84.2635L91.2583 92.3276L64.7683 122.081Z" stroke="#FFB240" stroke-width="2"/>
<path d="M58.2209 89.5831L83.6638 94.8424L66.3877 114.247L58.2209 89.5831Z" fill="#FFB240"/>
<path d="M141.903 35.443L129.381 -2.37485L168.393 5.6893L141.903 35.443Z" stroke="#FFB240" stroke-width="2"/>
<path d="M135.356 2.94484L160.799 8.20407L143.523 27.6086L135.356 2.94484Z" fill="#FFB240"/>
<path d="M161.536 -39.2438L174.058 -1.42593L135.046 -9.49008L161.536 -39.2438Z" stroke="#FFB240" stroke-width="2"/>
<path d="M168.083 -6.74562L142.641 -12.0049L159.917 -31.4094L168.083 -6.74562Z" fill="#FFB240"/>
<path d="M83.6542 46.7295L96.1766 84.5473L57.1642 76.4832L83.6542 46.7295Z" stroke="#FFB240" stroke-width="2"/>
<path d="M90.2016 79.2276L64.7587 73.9684L82.0347 54.5638L90.2016 79.2276Z" fill="#FFB240"/>
<path d="M7.26613 134.033L19.7886 171.851L-19.2238 163.787L7.26613 134.033Z" stroke="#FFB240" stroke-width="2"/>
<path d="M13.8135 166.531L-11.6294 161.272L5.64668 141.867L13.8135 166.531Z" fill="#FFB240"/>
</svg>
