<svg width="255" height="298" viewBox="0 0 255 298" fill="none" xmlns="http://www.w3.org/2000/svg">
<path d="M70.225 352.977L57.7025 315.16L96.7149 323.224L70.225 352.977Z" stroke="#FFB240" stroke-width="2"/>
<path d="M147.36 266.339L134.837 228.521L173.85 236.586L147.36 266.339Z" stroke="#FFB240" stroke-width="2"/>
<path d="M224.495 179.701L211.972 141.883L250.985 149.947L224.495 179.701Z" stroke="#FFB240" stroke-width="2"/>
<path d="M128.425 234.972L140.948 272.789L101.935 264.725L128.425 234.972Z" stroke="#FFB240" stroke-width="2"/>
<path d="M205.56 148.333L218.083 186.151L179.07 178.087L205.56 148.333Z" stroke="#FFB240" stroke-width="2"/>
<path d="M282.695 61.695L295.218 99.5128L256.205 91.4486L282.695 61.695Z" stroke="#FFB240" stroke-width="2"/>
<path d="M263.062 136.382L250.54 98.5639L289.552 106.628L263.062 136.382Z" stroke="#FFB240" stroke-width="2"/>
<path d="M256.515 103.884L281.958 109.143L264.682 128.547L256.515 103.884Z" fill="#FFB240"/>
<path d="M185.927 223.02L173.405 185.202L212.417 193.266L185.927 223.02Z" stroke="#FFB240" stroke-width="2"/>
<path d="M179.38 190.522L204.823 195.781L187.547 215.186L179.38 190.522Z" fill="#FFB240"/>
<path d="M108.792 309.658L96.2699 271.84L135.282 279.905L108.792 309.658Z" stroke="#FFB240" stroke-width="2"/>
<path d="M102.245 277.16L127.688 282.419L110.412 301.824L102.245 277.16Z" fill="#FFB240"/>
<path d="M89.8577 278.291L102.38 316.109L63.3677 308.044L89.8577 278.291Z" stroke="#FFB240" stroke-width="2"/>
<path d="M96.405 310.789L70.9622 305.53L88.2382 286.125L96.405 310.789Z" fill="#FFB240"/>
<path d="M166.993 191.652L179.515 229.47L140.503 221.406L166.993 191.652Z" stroke="#FFB240" stroke-width="2"/>
<path d="M173.54 224.151L148.097 218.891L165.373 199.487L173.54 224.151Z" fill="#FFB240"/>
<path d="M244.128 105.014L256.65 142.832L217.638 134.768L244.128 105.014Z" stroke="#FFB240" stroke-width="2"/>
<path d="M250.675 137.512L225.232 132.253L242.508 112.849L250.675 137.512Z" fill="#FFB240"/>
<path d="M208.36 319.339L195.837 281.521L234.85 289.585L208.36 319.339Z" stroke="#FFB240" stroke-width="2"/>
<path d="M189.425 287.971L201.948 325.789L162.935 317.725L189.425 287.971Z" stroke="#FFB240" stroke-width="2"/>
<path d="M266.56 201.333L279.083 239.151L240.07 231.087L266.56 201.333Z" stroke="#FFB240" stroke-width="2"/>
<path d="M246.927 276.02L234.405 238.202L273.417 246.266L246.927 276.02Z" stroke="#FFB240" stroke-width="2"/>
<path d="M240.38 243.522L265.823 248.781L248.547 268.186L240.38 243.522Z" fill="#FFB240"/>
<path d="M227.993 244.652L240.515 282.47L201.503 274.406L227.993 244.652Z" stroke="#FFB240" stroke-width="2"/>
<path d="M234.54 277.15L209.097 271.891L226.373 252.487L234.54 277.15Z" fill="#FFB240"/>
<path d="M272.104 13.4372L284.626 51.255L245.614 43.1908L272.104 13.4372Z" stroke="#FFB240" stroke-width="2"/>
<path d="M194.969 100.075L207.491 137.893L168.479 129.829L194.969 100.075Z" stroke="#FFB240" stroke-width="2"/>
<path d="M117.834 186.714L130.356 224.532L91.3437 216.467L117.834 186.714Z" stroke="#FFB240" stroke-width="2"/>
<path d="M252.471 88.1239L239.948 50.3061L278.961 58.3702L252.471 88.1239Z" stroke="#FFB240" stroke-width="2"/>
<path d="M175.336 174.762L162.813 136.944L201.826 145.009L175.336 174.762Z" stroke="#FFB240" stroke-width="2"/>
<path d="M98.2008 261.4L85.6783 223.583L124.691 231.647L98.2008 261.4Z" stroke="#FFB240" stroke-width="2"/>
<path d="M40.6987 273.352L53.2212 311.17L14.2088 303.106L40.6987 273.352Z" stroke="#FFB240" stroke-width="2"/>
<path d="M59.6333 304.72L47.1108 266.902L86.1233 274.966L59.6333 304.72Z" stroke="#FFB240" stroke-width="2"/>
<path d="M53.0859 272.222L78.5288 277.481L61.2527 296.885L53.0859 272.222Z" fill="#FFB240"/>
<path d="M136.768 218.081L124.246 180.264L163.258 188.328L136.768 218.081Z" stroke="#FFB240" stroke-width="2"/>
<path d="M130.221 185.583L155.664 190.843L138.388 210.247L130.221 185.583Z" fill="#FFB240"/>
<path d="M213.903 131.443L201.381 93.6251L240.393 101.689L213.903 131.443Z" stroke="#FFB240" stroke-width="2"/>
<path d="M207.356 98.9448L232.799 104.204L215.523 123.609L207.356 98.9448Z" fill="#FFB240"/>
<path d="M233.536 56.7562L246.058 94.5741L207.046 86.5099L233.536 56.7562Z" stroke="#FFB240" stroke-width="2"/>
<path d="M240.083 89.2544L214.641 83.9951L231.917 64.5906L240.083 89.2544Z" fill="#FFB240"/>
<path d="M155.654 142.73L168.177 180.547L129.164 172.483L155.654 142.73Z" stroke="#FFB240" stroke-width="2"/>
<path d="M162.202 175.228L136.759 169.969L154.035 150.564L162.202 175.228Z" fill="#FFB240"/>
<path d="M79.2661 230.033L91.7886 267.851L52.7762 259.787L79.2661 230.033Z" stroke="#FFB240" stroke-width="2"/>
<path d="M85.8135 262.531L60.3706 257.272L77.6467 237.867L85.8135 262.531Z" fill="#FFB240"/>
<path d="M255.969 153.075L268.491 190.893L229.479 182.829L255.969 153.075Z" stroke="#FFB240" stroke-width="2"/>
<path d="M178.834 239.714L191.356 277.531L152.344 269.467L178.834 239.714Z" stroke="#FFB240" stroke-width="2"/>
<path d="M236.336 227.762L223.813 189.944L262.826 198.008L236.336 227.762Z" stroke="#FFB240" stroke-width="2"/>
<path d="M159.201 314.4L146.678 276.583L185.691 284.647L159.201 314.4Z" stroke="#FFB240" stroke-width="2"/>
<path d="M197.768 271.081L185.246 233.263L224.258 241.328L197.768 271.081Z" stroke="#FFB240" stroke-width="2"/>
<path d="M191.221 238.583L216.664 243.842L199.388 263.247L191.221 238.583Z" fill="#FFB240"/>
<path d="M274.903 184.443L262.381 146.625L301.393 154.689L274.903 184.443Z" stroke="#FFB240" stroke-width="2"/>
<path d="M216.654 195.73L229.177 233.547L190.164 225.483L216.654 195.73Z" stroke="#FFB240" stroke-width="2"/>
<path d="M223.202 228.228L197.759 222.968L215.035 203.564L223.202 228.228Z" fill="#FFB240"/>
<path d="M140.266 283.033L152.789 320.851L113.776 312.787L140.266 283.033Z" stroke="#FFB240" stroke-width="2"/>
<path d="M146.813 315.531L121.371 310.272L138.647 290.867L146.813 315.531Z" fill="#FFB240"/>
</svg>
