<svg width="285" height="286" viewBox="0 0 285 286" fill="none" xmlns="http://www.w3.org/2000/svg">
<path d="M30.9326 236.008C31.1033 236.172 31.1777 236.393 31.1557 236.673C31.1195 236.938 31.0358 237.225 30.9045 237.532C30.7898 237.823 30.6598 238.115 30.5142 238.409C30.3687 238.703 30.2494 238.956 30.1563 239.166C30.0799 239.36 30.0273 239.543 29.9984 239.716C29.9862 239.871 29.9728 240.041 29.9581 240.227C29.9459 240.382 29.9099 240.548 29.8502 240.724C29.8071 240.883 29.7236 241.07 29.5996 241.284C29.4256 241.551 29.2553 241.771 29.0887 241.945C28.922 242.119 28.7779 242.298 28.6564 242.481C28.5206 242.651 28.4371 242.838 28.4058 243.041C28.3745 243.245 28.4072 243.51 28.5039 243.836C28.5888 244.118 28.7343 244.407 28.9403 244.705C29.1488 244.972 29.3251 245.258 29.4694 245.563C29.6137 245.868 29.6807 246.182 29.6705 246.506C29.677 246.813 29.5136 247.14 29.1803 247.487C29.3368 247.637 29.5586 247.733 29.846 247.775C30.1358 247.786 30.4255 247.798 30.7153 247.809C31.0217 247.802 31.3186 247.82 31.606 247.862C31.8791 247.891 32.0939 247.98 32.2503 248.13C32.421 248.294 32.5429 248.494 32.6161 248.731C32.6892 248.968 32.8111 249.168 32.9818 249.332L34.2582 250.607C34.526 250.897 34.8688 251.109 35.2866 251.243C35.7069 251.346 36.0663 251.54 36.365 251.827C36.5357 251.991 36.6647 252.198 36.7521 252.448C36.8252 252.685 36.9542 252.892 37.1391 253.07C37.7365 253.643 38.4006 254.146 39.1313 254.58C39.8644 254.983 40.5439 255.485 41.1698 256.085C41.5822 256.481 41.9886 256.954 42.3889 257.505C42.775 258.042 42.9732 258.632 42.9838 259.276C43.1996 259.45 43.4202 259.562 43.6458 259.611C43.8571 259.647 44.0827 259.697 44.3225 259.76C44.548 259.809 44.7866 259.888 45.0381 259.996C45.2921 260.073 45.5614 260.248 45.8459 260.521C46.1019 260.766 46.4099 261.128 46.77 261.607C47.1325 262.055 47.4378 262.548 47.6861 263.086C47.9202 263.611 48.0532 264.156 48.0853 264.72C48.1198 265.254 47.9371 265.729 47.5371 266.146C47.5038 266.181 47.4705 266.215 47.4372 266.25C47.4063 266.254 47.3742 266.273 47.3408 266.308L47.4438 266.457L47.5079 266.518C47.707 266.709 47.9514 266.81 48.2412 266.821C48.5476 266.815 48.8004 266.907 48.9996 267.098C49.0991 267.194 49.1521 267.395 49.1586 267.701C49.1818 267.99 49.1787 268.321 49.1494 268.693C49.1201 269.065 49.0754 269.439 49.0152 269.815C48.9717 270.174 48.9402 270.477 48.9206 270.725C48.8987 271.004 48.91 271.249 48.9547 271.458C49.0019 271.637 49.0335 271.818 49.0498 272C49.0685 272.151 49.0467 272.331 48.9845 272.538C48.9248 272.714 48.7912 272.953 48.5839 273.254C48.2218 273.774 47.9452 274.276 47.7541 274.76C47.5631 275.244 47.3875 275.726 47.2273 276.206C47.0529 276.673 46.8322 277.145 46.5651 277.623C46.3123 278.114 45.9276 278.629 45.411 279.167C45.1277 279.463 44.8243 279.722 44.5008 279.946C44.1772 280.169 43.8466 280.386 43.5088 280.595C43.1569 280.791 42.8108 281.01 42.4706 281.251C42.1471 281.474 41.852 281.725 41.5854 282.003C41.3687 282.228 41.1663 282.468 40.9781 282.721C40.7924 282.943 40.5912 283.167 40.3745 283.393C40.2079 283.567 40.0675 283.699 39.9533 283.79C39.8557 283.863 39.6988 283.912 39.4826 283.939C39.314 283.944 39.1024 284.008 38.848 284.13C38.6102 284.236 38.3629 284.366 38.106 284.52C37.8349 284.66 37.5781 284.814 37.3354 284.981C37.0786 285.135 36.8693 285.268 36.7075 285.38C36.3364 285.624 35.9026 285.792 35.4059 285.882C34.9259 285.956 34.4342 285.984 33.9306 285.968C33.4295 285.921 32.9379 285.85 32.4559 285.755C31.9906 285.642 31.587 285.522 31.2452 285.394C30.5617 285.139 29.9293 284.816 29.3482 284.425C28.7528 284.021 28.1812 283.606 27.6334 283.18C27.0713 282.741 26.5081 282.318 25.9436 281.91C25.3816 281.471 24.7766 281.091 24.1288 280.77C23.863 280.648 23.5889 280.535 23.3065 280.431C23.0265 280.296 22.7798 280.126 22.5664 279.921C22.41 279.771 22.2773 279.611 22.1684 279.44C22.0452 279.255 21.9221 279.07 21.799 278.885C21.3349 278.173 20.8304 277.489 20.2854 276.833C19.7571 276.159 19.1872 275.529 18.5756 274.943C17.7648 274.165 16.9112 273.446 16.0147 272.786C15.1349 272.109 14.2896 271.382 13.4788 270.604C13.3224 270.454 13.173 270.311 13.0308 270.174C12.8885 270.038 12.7475 269.886 12.6077 269.719C12.3566 269.411 12.1459 269.075 11.9756 268.712C11.822 268.331 11.603 268.004 11.3185 267.731C11.219 267.636 11.1098 267.565 10.9912 267.517C10.8725 267.47 10.7467 267.416 10.6138 267.356C10.044 267.209 9.59314 267.01 9.26112 266.759C8.91487 266.493 8.52595 266.187 8.09437 265.84C7.41609 265.322 6.8323 265.063 6.34297 265.06C5.87031 265.041 5.40211 265.159 4.93836 265.414C4.49129 265.653 4.02388 265.955 3.53616 266.321C3.05087 266.656 2.44102 266.922 1.70661 267.118C1.50217 267.189 1.30018 267.228 1.10063 267.237C0.903519 267.215 0.740957 267.142 0.612945 267.02C0.385368 266.801 0.320775 266.456 0.419164 265.983C0.534217 265.493 0.734823 264.985 1.02098 264.459C1.30714 263.933 1.62174 263.434 1.9648 262.962C2.29363 262.477 2.56636 262.122 2.783 261.896C3.04963 261.618 3.32804 261.384 3.61824 261.196C3.9251 260.99 4.21184 260.748 4.47848 260.47C5.01174 259.914 5.47855 259.328 5.87892 258.711C6.26507 258.081 6.72477 257.487 7.25803 256.931C7.47467 256.706 7.84352 256.392 8.36457 255.991C8.88563 255.591 9.44225 255.224 10.0344 254.891C10.6124 254.545 11.1676 254.293 11.7 254.137C12.2348 253.95 12.6232 253.972 12.865 254.204C13.1779 254.504 13.3599 254.912 13.4111 255.428C13.4647 255.913 13.4529 256.452 13.3756 257.045C13.2984 257.638 13.1949 258.273 13.0652 258.949C12.9521 259.608 12.8854 260.261 12.8651 260.909C12.8447 261.556 12.917 262.193 13.0819 262.818C13.2493 263.412 13.5748 263.941 14.0584 264.405C14.3429 264.678 14.6428 264.949 14.9582 265.218C15.276 265.456 15.5771 265.712 15.8616 265.985C16.4305 266.53 16.9257 267.139 17.3471 267.81C17.7852 268.464 18.2958 269.07 18.879 269.629C19.3483 270.08 19.85 270.411 20.3841 270.623C20.9205 270.804 21.2954 270.997 21.5088 271.201C21.7364 271.42 21.9164 271.659 22.0488 271.919C22.1838 272.149 22.3579 272.366 22.5712 272.571C22.6708 272.666 22.7633 272.755 22.8486 272.837C22.9506 272.901 23.0514 272.981 23.151 273.077C23.3785 273.295 23.5218 273.516 23.5807 273.739C23.6563 273.945 23.7093 274.146 23.7398 274.342C23.7702 274.538 23.7936 274.727 23.8098 274.91C23.8261 275.092 23.8982 275.244 24.0262 275.367C24.0526 275.226 24.0862 275.091 24.1268 274.963C24.1675 274.836 24.2378 274.72 24.3378 274.615C24.4544 274.494 24.5817 274.432 24.7194 274.431C24.8572 274.43 24.9925 274.46 25.1254 274.52C25.2608 274.55 25.3937 274.611 25.5241 274.703C25.6403 274.781 25.734 274.854 25.8051 274.922C26.1749 275.277 26.596 275.564 27.0682 275.783C27.5571 275.985 27.9865 276.264 28.3563 276.619C28.6834 276.932 28.9844 277.288 29.2591 277.685C29.5195 278.068 29.8205 278.423 30.1618 278.751C30.489 279.065 30.8198 279.332 31.1542 279.553C31.4912 279.742 31.9366 279.719 32.4906 279.483C32.5857 279.441 32.746 279.445 32.9715 279.494C33.1971 279.544 33.4369 279.607 33.6909 279.684C33.9473 279.73 34.2109 279.783 34.4816 279.842C34.738 279.888 34.9518 279.893 35.1229 279.857C35.4793 279.798 35.824 279.695 36.1568 279.548C36.4897 279.4 36.8226 279.252 37.1554 279.104C37.4907 278.926 37.8236 278.778 38.154 278.661C38.4869 278.514 38.8374 278.433 39.2057 278.419C39.5121 278.413 39.846 278.349 40.2073 278.229C40.5544 278.095 40.9074 277.983 41.2662 277.894C41.6276 277.773 41.9698 277.701 42.2929 277.678C42.616 277.654 42.8913 277.751 43.1189 277.97C42.934 277.792 42.818 277.614 42.7708 277.436C42.8302 277.459 42.9025 277.512 42.9878 277.594C43.1016 277.703 43.1536 277.819 43.1439 277.944C43.1512 277.85 43.1384 277.721 43.1055 277.556C43.0726 277.391 43.0397 277.226 43.0068 277.061C42.9739 276.896 42.9552 276.745 42.9507 276.607C42.9463 276.47 42.9857 276.357 43.069 276.271C43.1857 276.149 43.3296 276.07 43.5007 276.034C43.6718 275.998 43.8142 276.035 43.928 276.144C44.0702 276.28 44.172 276.445 44.2334 276.637C44.2947 276.829 44.3882 277.002 44.5138 277.156C44.6804 276.982 44.8186 276.781 44.9284 276.553C45.0406 276.294 45.1219 276.038 45.1723 275.786C45.2227 275.534 45.2256 275.304 45.1809 275.094C45.1386 274.853 45.0393 274.658 44.8828 274.508C44.6979 274.33 44.5174 274.291 44.3415 274.389C44.1679 274.456 43.9895 274.585 43.8062 274.776C43.6729 274.915 43.5467 275.061 43.4276 275.213C43.3251 275.349 43.2073 275.486 43.074 275.625L42.999 275.703C42.8689 275.411 42.8161 275.111 42.8405 274.8C42.8649 274.49 42.9428 274.181 43.0741 273.874C43.1912 273.552 43.3379 273.243 43.5143 272.945C43.6765 272.633 43.8303 272.331 43.9759 272.037C44.212 271.563 44.346 271.124 44.3777 270.721C44.3952 270.304 44.3889 269.898 44.3589 269.502C44.3289 269.106 44.2988 268.71 44.2688 268.315C44.2245 267.905 44.2432 267.473 44.325 267.018C44.2421 266.905 44.1579 266.807 44.0726 266.725C43.9872 266.644 43.9019 266.562 43.8166 266.48C43.5179 266.193 43.2096 265.931 42.8918 265.693C42.5765 265.424 42.2694 265.146 41.9707 264.859C41.6436 264.546 41.3665 264.18 41.1393 263.762C40.9288 263.326 40.66 262.952 40.3328 262.638C40.0484 262.365 39.7365 262.149 39.3971 261.991C39.0436 261.818 38.7245 261.596 38.4401 261.323C38.184 261.077 37.9768 260.795 37.8183 260.476C37.6456 260.144 37.4312 259.855 37.1752 259.609C36.7627 259.213 36.3228 258.875 35.8555 258.593C35.3739 258.298 34.934 257.96 34.5357 257.578C33.9952 257.059 33.5189 256.502 33.1069 255.907C32.7115 255.294 32.2506 254.735 31.7244 254.23C31.0416 253.576 30.2981 253.013 29.4939 252.541C28.7063 252.053 27.9711 251.481 27.2884 250.826C27.1888 250.731 27.0608 250.608 26.9043 250.458C26.7503 250.277 26.6117 250.094 26.4886 249.909C26.3679 249.693 26.2923 249.487 26.2619 249.291C26.2172 249.081 26.2782 248.89 26.4448 248.716C26.2806 248.859 26.0036 248.977 25.6139 249.07C25.2265 249.132 24.825 249.18 24.4092 249.215C23.9959 249.219 23.6064 249.212 23.2406 249.195C22.8772 249.147 22.6387 249.068 22.5249 248.959C22.4558 249.059 22.3867 249.16 22.3176 249.26C22.2509 249.33 22.176 249.408 22.0926 249.495C21.8593 249.738 21.5988 249.939 21.311 250.096C21.04 250.237 20.7689 250.377 20.4978 250.517C20.2125 250.644 19.9259 250.786 19.6382 250.943C19.3504 251.101 19.0815 251.31 18.8316 251.571L18.7066 251.701C18.2843 251.429 17.8347 251.215 17.3575 251.058C16.8971 250.883 16.482 250.618 16.1121 250.263C15.8277 249.99 15.6834 249.685 15.6794 249.348C15.692 248.993 15.789 248.636 15.9702 248.276C16.1373 247.902 16.3566 247.546 16.6281 247.206C16.9163 246.848 17.1854 246.539 17.4353 246.279C17.9019 245.792 18.3815 245.335 18.8742 244.907C19.3668 244.479 19.8464 244.021 20.313 243.535C20.6629 243.17 20.9239 242.77 21.0958 242.334C21.2536 241.885 21.4991 241.487 21.8323 241.139C22.0157 240.948 22.2429 240.783 22.5139 240.642C22.7708 240.488 23.0419 240.348 23.3272 240.222C23.6292 240.078 23.9312 239.934 24.2332 239.79C24.5209 239.632 24.779 239.463 25.0074 239.281C25.3667 238.992 25.7213 238.665 26.0713 238.3C26.4379 237.918 26.8104 237.558 27.1888 237.221C27.5672 236.883 27.9574 236.59 28.3594 236.342C28.7471 236.08 29.1739 235.906 29.6396 235.819C29.8725 235.775 30.1029 235.763 30.3309 235.781C30.5756 235.783 30.7762 235.858 30.9326 236.008Z" fill="#F11C29" fill-opacity="0.6"/>
<path d="M66.8444 211.723C67.1004 211.969 67.3552 212.23 67.6088 212.506C67.8648 212.752 68.0804 213.025 68.2556 213.327C68.3502 213.484 68.4175 213.699 68.4573 213.971C68.4829 214.229 68.4835 214.513 68.4591 214.823C68.4371 215.102 68.3842 215.385 68.3005 215.672C68.2025 215.945 68.0785 216.159 67.9286 216.316C67.6786 216.576 67.4349 216.659 67.1976 216.565C66.9603 216.471 66.7254 216.346 66.4929 216.19C66.2771 216.016 66.0422 215.891 65.7882 215.814C65.5509 215.72 65.2989 215.811 65.0322 216.089C64.9489 216.176 64.8882 216.268 64.8499 216.365C64.8284 216.444 64.776 216.527 64.6926 216.614C64.6593 216.649 64.5406 216.602 64.3366 216.473C64.1326 216.344 63.8847 216.19 63.5929 216.01C63.3011 215.83 63.001 215.659 62.6925 215.496C62.3699 215.32 62.0815 215.194 61.8275 215.117C61.4073 215.014 60.9716 214.913 60.5205 214.814C60.0718 214.684 59.6839 214.462 59.3568 214.148C59.1292 213.93 58.9872 213.693 58.9307 213.439C58.86 213.171 58.8119 212.908 58.7863 212.65C58.7607 212.392 58.7268 212.143 58.6845 211.902C58.6423 211.661 58.5216 211.446 58.3225 211.255C58.038 210.982 57.6808 210.856 57.2508 210.877C56.8208 210.898 56.3751 211.021 55.9138 211.246C55.455 211.439 55.0138 211.7 54.5903 212.028C54.1692 212.324 53.8254 212.612 53.5587 212.89C53.1088 213.359 52.717 213.867 52.3832 214.414C52.052 214.93 51.7337 215.476 51.4284 216.05C51.1398 216.607 50.8584 217.171 50.584 217.742C50.3096 218.313 50.0139 218.863 49.6969 219.393C49.9793 219.497 50.2355 219.643 50.4656 219.83C50.7122 220 50.9423 220.187 51.1556 220.392C51.6392 220.856 52.0978 221.346 52.5314 221.862C52.9508 222.364 53.4023 222.847 53.8859 223.311C54.4122 223.816 54.9718 224.286 55.5647 224.721C56.1434 225.143 56.7221 225.564 57.3008 225.986C57.8962 226.39 58.4903 226.81 59.0833 227.245C59.662 227.667 60.2074 228.124 60.7194 228.615C61.3452 229.215 61.8319 229.932 62.1793 230.766C62.2431 230.927 62.3105 231.042 62.3817 231.11C62.5381 231.26 62.7362 231.367 62.976 231.43C63.2016 231.479 63.4497 231.534 63.7204 231.593C63.9935 231.622 64.257 231.674 64.511 231.751C64.765 231.828 64.9845 231.955 65.1694 232.133C65.3401 232.296 65.4703 232.488 65.5601 232.708C65.6499 232.927 65.7731 233.112 65.9295 233.262C66.1571 233.48 66.4109 233.657 66.6909 233.792C66.9876 233.91 67.2497 234.078 67.4773 234.296C67.6053 234.419 67.6419 234.538 67.587 234.652C67.5488 234.748 67.4797 234.849 67.3797 234.953C67.2797 235.057 67.1952 235.16 67.1261 235.26C67.0594 235.33 67.0616 235.399 67.1328 235.467C67.3461 235.672 67.6023 235.817 67.9015 235.904C68.203 235.96 68.4605 236.09 68.6738 236.295C68.8587 236.472 68.9865 236.695 69.0572 236.963C69.1304 237.2 69.2594 237.407 69.4443 237.584C69.6292 237.761 69.8844 237.823 70.21 237.768C70.5522 237.696 70.8645 237.712 71.147 237.816C71.4721 237.961 71.8161 238.158 72.179 238.406C72.5586 238.637 72.9739 238.801 73.4251 238.901C73.8928 238.982 74.4096 238.928 74.9753 238.736C75.5269 238.532 76.1609 238.056 76.8775 237.309L77.6024 236.553C77.8024 236.344 78.0582 236.106 78.37 235.838C78.6984 235.553 79.0386 235.312 79.3905 235.116C79.7449 234.889 80.092 234.755 80.4318 234.714C80.774 234.641 81.0589 234.715 81.2865 234.933C81.5141 235.151 81.6845 235.415 81.7979 235.724C81.9113 236.033 82.0817 236.296 82.3093 236.514C82.3804 236.583 82.5038 236.668 82.6793 236.769C82.4294 237.03 82.2542 237.312 82.1538 237.616C82.0558 237.889 82.0718 238.171 82.2019 238.463C81.8117 238.756 81.4345 239.078 81.0703 239.429C80.7086 239.749 80.3611 240.083 80.0278 240.43C79.1779 241.317 78.3932 242.248 77.6738 243.226C76.9402 244.19 76.2124 245.177 75.4905 246.186C74.7711 247.164 74.0433 248.15 73.3072 249.145C72.5736 250.109 71.7818 251.034 70.9319 251.92C70.6486 252.216 70.2915 252.574 69.8607 252.995C69.4299 253.415 68.9801 253.784 68.5115 254.102C68.0429 254.42 67.5816 254.645 67.1276 254.776C66.6761 254.877 66.2796 254.763 65.9383 254.436C65.54 254.054 65.2901 253.731 65.1885 253.467C65.0894 253.171 65.0709 252.92 65.1331 252.713C65.1811 252.492 65.2813 252.288 65.4337 252.101C65.6028 251.896 65.7493 251.686 65.8733 251.471C65.8806 251.378 65.8629 251.311 65.8202 251.27C65.7491 251.202 65.6506 251.191 65.5246 251.237C65.401 251.252 65.2834 251.289 65.1716 251.349C65.2415 250.849 65.4088 250.375 65.6734 249.929C65.9547 249.465 66.2644 249.028 66.6026 248.618C66.9574 248.192 67.3123 247.765 67.6671 247.338C68.0219 246.911 68.3091 246.469 68.5286 246.013C68.6192 245.833 68.64 245.569 68.5908 245.222C68.5417 244.874 68.4545 244.524 68.3294 244.17C68.2209 243.799 68.0791 243.463 67.904 243.162C67.7455 242.843 67.6022 242.622 67.4742 242.499L67.4315 242.458C66.6322 241.925 65.872 241.38 65.1511 240.821C64.4301 240.263 63.7283 239.657 63.0456 239.002C62.9887 238.947 62.9212 238.833 62.8432 238.658C62.7509 238.469 62.6754 238.263 62.6164 238.04C62.5266 237.82 62.4405 237.554 62.358 237.242C62.0398 237.203 61.7525 237.161 61.496 237.115C61.2705 237.066 61.0604 237.014 60.8657 236.961C60.671 236.908 60.5381 236.847 60.467 236.779C60.2963 236.615 60.1661 236.423 60.0763 236.204C59.9865 235.984 59.88 235.782 59.7569 235.597C59.2595 234.92 58.705 234.288 58.0934 233.701C57.8373 233.456 57.5634 233.243 57.2716 233.063C56.9823 232.852 56.6834 232.666 56.3749 232.503C55.2906 231.897 54.2862 231.15 53.3617 230.264C52.2807 229.227 51.2902 228.11 50.39 226.913C49.4899 225.716 48.4994 224.599 47.4184 223.562C47.0485 223.207 46.6891 223.013 46.34 222.978C45.9766 222.93 45.5214 223.077 44.9744 223.419C44.2489 223.891 43.5269 224.416 42.8083 224.994C42.1063 225.555 41.4471 226.157 40.8305 226.8C40.3639 227.286 39.9221 227.847 39.505 228.481C39.0905 229.084 38.7732 229.713 38.5533 230.37C38.3358 230.995 38.2561 231.619 38.3142 232.242C38.3747 232.834 38.6396 233.355 39.109 233.805C39.3508 234.037 39.6021 234.245 39.863 234.428C40.124 234.612 40.3753 234.819 40.6171 235.051C40.8447 235.27 40.9855 235.521 41.0395 235.807C41.096 236.061 41.2025 236.263 41.3589 236.413C41.5723 236.618 41.8381 236.74 42.1563 236.778C42.4745 236.816 42.7403 236.938 42.9536 237.142C43.0959 237.279 43.2107 237.472 43.298 237.723C43.4021 237.956 43.4965 238.214 43.5815 238.495C43.6521 238.763 43.7228 239.031 43.7935 239.299C43.8809 239.55 43.9707 239.769 44.0629 239.958C44.193 240.249 44.2696 240.54 44.2927 240.829C44.3159 241.118 44.1858 241.41 43.9025 241.705C43.6692 241.948 43.3885 242.113 43.0605 242.199C42.7183 242.271 42.4477 242.211 42.2485 242.02C42.0921 241.87 42.0128 241.711 42.0108 241.542C42.0112 241.342 41.9475 241.181 41.8194 241.058C41.6772 240.922 41.5016 240.82 41.2927 240.753C41.0696 240.673 40.837 240.616 40.5947 240.584C40.355 240.521 40.1235 240.449 39.9004 240.368C39.6773 240.288 39.4875 240.172 39.331 240.022C39.1319 239.831 38.9732 239.612 38.855 239.365C38.7534 239.101 38.603 238.874 38.4039 238.683C37.9772 238.273 37.4743 237.958 36.8951 237.736C36.3327 237.496 35.8381 237.172 35.4114 236.763C35.0273 236.395 34.6222 235.906 34.1959 235.297C33.7696 234.688 33.4313 234.03 33.181 233.323C32.9474 232.598 32.8586 231.879 32.9148 231.166C32.9734 230.421 33.3026 229.736 33.9025 229.111C34.3191 228.677 34.7701 228.292 35.2554 227.957C35.7431 227.591 36.2036 227.182 36.6369 226.73C37.1202 226.226 37.5679 225.688 37.98 225.116C38.3922 224.544 38.8399 224.006 39.3231 223.503C39.6564 223.155 40.0145 222.881 40.3974 222.682C40.7827 222.451 41.142 222.162 41.4753 221.814C41.6752 221.606 41.8063 221.398 41.8685 221.191C41.9331 220.952 42.0571 220.738 42.2404 220.547C42.4404 220.338 42.6747 220.179 42.9434 220.07C43.2145 219.93 43.45 219.755 43.65 219.547C43.8333 219.356 43.9786 219.162 44.0859 218.964C44.2099 218.75 44.3552 218.556 44.5218 218.382C44.7718 218.121 45.0419 217.897 45.3321 217.708C45.6389 217.502 45.909 217.277 46.1423 217.034L48.8469 213.574C49.2684 213.077 49.6899 212.581 50.1114 212.085C50.5328 211.588 50.9769 211.097 51.4435 210.611C52.2434 209.777 53.0918 209.006 53.9889 208.299C54.8883 207.56 55.8162 206.849 56.7726 206.165L56.7939 206.186C57.4576 205.721 58.091 205.545 58.6942 205.657C59.2973 205.768 59.874 206.021 60.4242 206.415C60.9769 206.779 61.4938 207.208 61.975 207.703C62.4562 208.198 62.8912 208.598 63.2801 208.905C63.8706 209.371 64.4765 209.835 65.0979 210.298C65.7217 210.73 66.3039 211.205 66.8444 211.723Z" fill="#F11C29" fill-opacity="0.6"/>
<path d="M86.3365 179.444C86.493 179.594 86.5685 179.8 86.5632 180.062C86.5746 180.306 86.5526 180.585 86.4973 180.899C86.4445 181.182 86.3762 181.467 86.2924 181.753C86.2087 182.04 86.1511 182.285 86.1198 182.488C86.0357 182.975 85.7936 183.426 85.3937 183.843C85.127 184.121 84.8403 184.363 84.5334 184.569C84.2432 184.758 83.9648 184.991 83.6982 185.269C83.5815 185.391 83.5112 185.507 83.4872 185.617C83.3844 185.952 83.2401 186.231 83.0543 186.453C82.8686 186.675 82.6591 186.908 82.4258 187.151C82.2924 187.29 82.0594 187.433 81.7265 187.581C81.3961 187.698 81.1656 187.71 81.0352 187.619L81.0608 187.293C80.9344 187.539 80.8734 187.73 80.8779 187.868C80.8823 188.006 80.9106 188.133 80.9626 188.249C81.0312 188.349 81.107 188.455 81.1899 188.568C81.2728 188.68 81.3307 188.819 81.3637 188.984C81.4226 189.208 81.3746 189.429 81.2197 189.647C81.0815 189.848 80.9706 190.092 80.8868 190.378C80.8197 190.648 80.8547 190.981 80.9916 191.38C81.1143 191.764 81.4815 192.25 82.0931 192.836C82.3633 193.096 82.6431 193.331 82.9325 193.541C83.2218 193.752 83.4945 193.98 83.7505 194.226C84.2626 194.717 84.7246 195.261 85.1367 195.856C85.5345 196.438 85.9966 196.981 86.5229 197.486C86.8358 197.786 87.0762 198.133 87.244 198.528C87.4285 198.905 87.6772 199.243 87.9901 199.544C88.431 199.967 88.9535 200.034 89.5574 199.746C89.4834 199.909 89.5056 200.113 89.6238 200.36C89.7278 200.593 89.8686 200.845 90.0462 201.116C90.2263 201.355 90.4146 201.586 90.6113 201.808C90.8104 201.999 90.9527 202.135 91.038 202.217C91.0949 202.272 91.1731 202.347 91.2727 202.442C91.3723 202.538 91.4873 202.631 91.6177 202.723C91.734 202.801 91.8502 202.879 91.9664 202.957C92.0684 203.022 92.1658 203.049 92.2584 203.037C92.5055 203.008 92.7144 203.074 92.8851 203.238C93.0558 203.402 93.1931 203.6 93.2972 203.834C93.387 204.053 93.5172 204.245 93.6879 204.409C94.3848 205.077 95.1318 205.693 95.9287 206.258C96.7281 206.791 97.4763 207.392 98.1732 208.06C98.6284 208.497 99.0252 208.994 99.3637 209.553C99.7189 210.093 100.124 210.582 100.579 211.019C100.992 211.414 101.402 211.641 101.811 211.699C102.219 211.758 102.629 211.701 103.04 211.528C103.452 211.355 103.862 211.098 104.271 210.757C104.68 210.416 105.085 210.037 105.485 209.62C106.118 208.96 106.7 208.267 107.232 207.543C107.765 206.787 108.341 206.088 108.957 205.445C109.574 204.802 110.212 204.464 110.873 204.43C111.55 204.379 112.144 204.599 112.656 205.09C113.04 205.459 113.328 205.885 113.519 206.369C113.713 206.821 113.798 207.303 113.773 207.813C113.779 208.319 113.67 208.831 113.445 209.35C113.221 209.868 112.876 210.371 112.409 210.857C112.076 211.205 111.665 211.562 111.177 211.928C110.397 212.514 109.645 213.127 108.922 213.767C108.212 214.421 107.508 215.113 106.808 215.843C106.225 216.451 105.649 217.065 105.08 217.687C104.525 218.323 103.956 218.944 103.372 219.552C102.673 220.282 101.974 220.996 101.276 221.695C100.579 222.393 99.8803 223.108 99.1803 223.837C98.9304 224.098 98.6532 224.316 98.3488 224.491C98.0443 224.666 97.7755 224.875 97.5422 225.118C97.3755 225.292 97.2052 225.512 97.0313 225.779C96.8715 226.059 96.6951 226.357 96.502 226.672C96.3256 226.97 96.1255 227.278 95.9015 227.597C95.6918 227.93 95.4536 228.235 95.1869 228.513C94.5704 229.156 93.9162 229.596 93.2245 229.833C92.5469 230.084 91.9166 229.929 91.3334 229.37C91.1485 229.193 90.9957 228.996 90.875 228.78C90.7637 228.64 90.6609 228.391 90.5666 228.034C90.489 227.659 90.4352 227.274 90.4052 226.878C90.3776 226.452 90.3855 226.059 90.429 225.7C90.4892 225.325 90.6026 225.05 90.7693 224.876C90.9026 224.737 91.056 224.634 91.2296 224.567C91.4198 224.483 91.6325 224.403 91.8678 224.329C92.1056 224.223 92.3613 224.085 92.6348 223.913C92.9083 223.742 93.1951 223.5 93.495 223.187C94.0949 222.562 94.6701 221.863 95.2204 221.09C95.7708 220.317 96.1917 219.536 96.4831 218.748C96.777 217.929 96.8998 217.147 96.8515 216.4C96.789 215.639 96.4519 214.966 95.8403 214.379C95.6127 214.161 95.3756 213.967 95.1289 213.797C94.868 213.613 94.6071 213.43 94.3462 213.246C93.5066 212.641 92.7015 211.985 91.931 211.28C91.1605 210.574 90.3983 209.859 89.6445 209.136C89.1467 208.659 88.7452 208.124 88.44 207.531C88.1206 206.924 87.712 206.382 87.2142 205.905C86.9297 205.632 86.6011 205.433 86.2284 205.309C85.8558 205.185 85.5343 204.994 85.2641 204.734C85.136 204.612 85.0247 204.472 84.93 204.314C84.852 204.139 84.7419 203.983 84.5996 203.847C84.2867 203.547 83.9464 203.304 83.5786 203.118C83.2132 202.901 82.8812 202.649 82.5825 202.362C82.0847 201.885 81.6452 201.347 81.264 200.747C80.8995 200.131 80.4683 199.584 79.9705 199.106C79.6718 198.82 79.3314 198.577 78.9494 198.377C78.5674 198.178 78.1842 197.993 77.7997 197.825C77.4319 197.639 77.057 197.446 76.675 197.246C76.293 197.047 75.9526 196.804 75.6539 196.517C75.469 196.34 75.302 196.13 75.1529 195.886C74.8537 195.8 74.5556 195.797 74.2585 195.879C73.9614 195.961 73.6548 196.067 73.3386 196.198C73.0224 196.328 72.7062 196.458 72.39 196.589C72.0904 196.702 71.7899 196.73 71.4883 196.675C71.3693 196.827 71.3428 196.969 71.4091 197.099C71.4611 197.215 71.5356 197.337 71.6328 197.464C71.7157 197.576 71.7819 197.707 71.8315 197.854C71.8835 197.971 71.8416 198.114 71.7059 198.284C71.2819 198.812 70.8425 199.341 70.3877 199.872C69.9496 200.386 69.4972 200.886 69.0306 201.372C68.7639 201.65 68.4164 201.984 67.988 202.374C67.5763 202.746 67.1374 203.075 66.6712 203.362C66.2217 203.632 65.7795 203.808 65.3446 203.891C64.9097 203.974 64.5287 203.859 64.2016 203.545C64.0024 203.354 63.8462 203.104 63.7328 202.795C63.6219 202.455 63.5347 202.105 63.4714 201.744C63.4247 201.366 63.4005 200.992 63.3989 200.624C63.3998 200.224 63.404 199.878 63.4118 199.585C63.4289 199.368 63.5185 199.104 63.6807 198.792C63.8429 198.481 64.0514 198.164 64.3062 197.841C64.5778 197.501 64.873 197.151 65.1921 196.79C65.5112 196.429 65.8374 196.074 66.1706 195.727C66.5873 195.292 66.9777 194.9 67.3418 194.549C67.7084 194.166 68.0084 193.854 68.2417 193.61C68.6583 193.176 69.1595 192.639 69.7452 192C70.3333 191.33 70.881 190.688 71.3883 190.074C71.9122 189.442 72.3528 188.897 72.7101 188.44C73.0698 187.951 73.2295 187.67 73.1893 187.598C73.3319 187.535 73.5197 187.482 73.7526 187.438C73.9879 187.364 74.2232 187.289 74.4586 187.215C74.7105 187.123 74.9471 187.033 75.1682 186.945C75.3893 186.856 75.5415 186.769 75.6248 186.682C75.7248 186.578 75.7713 186.472 75.7644 186.366C75.76 186.228 75.7317 186.101 75.6797 185.984C75.6444 185.85 75.5924 185.734 75.5237 185.634C75.4408 185.521 75.3709 185.438 75.314 185.383L75.489 185.201C75.8556 184.819 76.1897 184.655 76.4912 184.711C76.8095 184.749 77.0966 184.891 77.3526 185.137C77.4095 185.192 77.451 185.248 77.477 185.306C77.5196 185.347 77.5623 185.388 77.605 185.429C77.7432 185.228 77.7958 185.045 77.7629 184.88C77.7324 184.684 77.6853 184.505 77.6215 184.344C77.5577 184.183 77.5165 184.027 77.4978 183.875C77.4958 183.706 77.5864 183.527 77.7697 183.335C77.8364 183.266 77.9506 183.175 78.1124 183.064L78.2873 182.881C78.91 182.745 79.3924 182.64 79.7346 182.568C80.0935 182.479 80.3668 182.407 80.5546 182.354C80.7281 182.287 80.8387 182.243 80.8862 182.222C80.9338 182.201 80.9659 182.181 80.9825 182.164C81.0159 182.129 81.0813 182.075 81.1789 182.002C81.2931 181.912 81.3431 181.859 81.3288 181.846C81.2719 181.791 81.1805 181.787 81.0545 181.833C80.931 181.848 80.7907 181.88 80.6339 181.93C80.4936 181.962 80.3463 181.987 80.1919 182.006C80.0541 182.007 79.9425 181.967 79.8572 181.885C80.0572 181.677 80.1941 181.491 80.2681 181.329C80.3279 181.153 80.371 180.994 80.3974 180.852C80.4096 180.697 80.4289 180.549 80.4554 180.407C80.4984 180.249 80.595 180.091 80.745 179.935C80.9616 179.709 81.1567 179.562 81.3302 179.495C81.5038 179.428 81.6678 179.386 81.8222 179.367C81.9624 179.335 82.0943 179.311 82.2179 179.296C82.3414 179.281 82.4615 179.213 82.5782 179.091C82.6615 179.004 82.721 178.928 82.7568 178.862C82.8092 178.779 82.8771 178.694 82.9604 178.607C83.0771 178.486 83.1948 178.448 83.3134 178.496C83.4321 178.543 83.5353 178.592 83.6231 178.643C83.8865 178.795 84.0917 178.908 84.2388 178.983C84.3859 179.057 84.5271 179.109 84.6625 179.139C84.7978 179.169 84.9486 179.197 85.1148 179.223C85.2835 179.218 85.5198 179.228 85.8238 179.252C86.0376 179.257 86.2085 179.321 86.3365 179.444ZM75.2213 193.851C75.2075 193.637 75.0545 193.54 74.7623 193.56C74.4701 193.58 74.2323 193.686 74.049 193.877C73.849 194.085 73.801 194.306 73.9051 194.539C74.0115 194.742 74.1288 194.904 74.2568 195.027C74.3897 195.088 74.5179 195.111 74.6414 195.096C74.7483 195.098 74.8564 195.085 74.9658 195.056C75.0751 195.028 75.1714 194.97 75.2547 194.883C75.3881 194.744 75.4667 194.62 75.4907 194.509C75.5005 194.385 75.4865 194.272 75.4487 194.169C75.4109 194.066 75.3351 193.96 75.2213 193.851Z" fill="#F11C29" fill-opacity="0.6"/>
<path d="M139.694 168.49C139.878 168.667 140.007 168.874 140.081 169.111C140.154 169.348 140.283 169.555 140.468 169.733C140.61 169.869 140.785 169.971 140.994 170.038C141.189 170.091 141.357 170.186 141.5 170.322C141.613 170.432 141.773 170.635 141.979 170.933C142.171 171.217 142.361 171.532 142.548 171.878C142.751 172.207 142.932 172.53 143.091 172.849C143.235 173.154 143.316 173.383 143.335 173.534L142.61 174.29C142.842 174.646 143.031 175.061 143.178 175.534C142.8 176.44 142.422 177.162 142.044 177.699C141.665 178.236 141.217 178.774 140.7 179.313C140.467 179.556 140.217 179.817 139.951 180.095C139.686 180.342 139.404 180.621 139.104 180.934C138.554 181.507 138.092 182.032 137.718 182.507C137.359 182.996 137.058 183.608 136.817 184.344C136.724 184.555 136.594 184.747 136.427 184.921C136.11 185.251 135.765 185.554 135.392 185.829C135.035 186.088 134.671 186.339 134.3 186.583C133.929 186.828 133.557 187.088 133.183 187.363C132.826 187.622 132.489 187.916 132.173 188.246C131.723 188.715 131.237 189.15 130.716 189.551C130.181 189.938 129.688 190.366 129.239 190.835C128.905 191.183 128.609 191.549 128.349 191.933C128.075 192.304 127.8 192.691 127.523 193.093C127.278 193.491 127.018 193.876 126.744 194.247C126.485 194.632 126.188 194.998 125.855 195.345C125.555 195.658 125.235 195.935 124.895 196.175C124.554 196.416 124.234 196.693 123.934 197.006C123.401 197.561 122.903 198.152 122.441 198.776C122.01 199.396 121.528 199.984 120.994 200.54C120.295 201.27 119.569 201.742 118.818 201.955C118.069 202.138 117.375 201.922 116.735 201.308C116.479 201.062 116.318 200.775 116.252 200.445C116.038 199.472 116.003 198.655 116.147 197.992C116.293 197.298 116.493 196.706 116.746 196.215C117.015 195.706 117.295 195.257 117.586 194.869C117.876 194.481 118.076 194.088 118.183 193.691C118.291 193.294 118.241 192.862 118.033 192.396C117.842 191.912 117.39 191.329 116.679 190.647C115.84 189.842 114.932 189.137 113.954 188.533C112.979 187.898 112.065 187.172 111.212 186.353C110.799 185.957 110.444 185.516 110.146 185.03C109.847 184.544 109.492 184.103 109.079 183.707C108.368 183.025 107.63 182.4 106.864 181.832C106.1 181.233 105.37 180.599 104.673 179.931C104.189 179.467 103.645 179.095 103.04 178.815C102.42 178.521 101.869 178.142 101.385 177.678C101.101 177.405 100.864 177.111 100.674 176.796C100.471 176.467 100.234 176.173 99.9636 175.914C99.5511 175.518 99.1137 175.149 98.6512 174.805C98.1887 174.462 97.7346 174.11 97.2887 173.749C97.0445 173.548 96.7824 173.38 96.5024 173.245C96.2248 173.078 95.9411 172.99 95.6514 172.979C95.3474 172.954 95.0373 173.007 94.7211 173.137C94.4048 173.267 94.0884 173.498 93.7718 173.828C93.4718 174.14 93.2146 174.494 92.9999 174.889C92.802 175.266 92.5447 175.62 92.2281 175.95C92.0448 176.141 91.8556 176.309 91.6605 176.456C91.4654 176.602 91.2632 176.742 91.0539 176.875C90.871 176.866 90.6822 176.835 90.4875 176.782C90.3095 176.711 90.1303 176.656 89.9498 176.616C89.7552 176.563 89.5652 176.548 89.3799 176.57C89.1803 176.579 88.9746 176.665 88.7629 176.829C88.7162 176.45 88.5971 176.019 88.4058 175.536C88.2144 175.052 88.0539 174.564 87.9243 174.073C87.8113 173.564 87.7744 173.062 87.8134 172.566C87.8525 172.069 88.0636 171.621 88.4469 171.222C88.7635 170.892 89.1192 170.649 89.5138 170.494C89.9251 170.321 90.2891 170.07 90.6057 169.74C91.0057 169.323 91.3178 168.855 91.5422 168.337C91.7666 167.818 92.0871 167.341 92.5037 166.907C92.837 166.56 93.2365 166.342 93.7023 166.256C93.9311 165.875 94.1705 165.554 94.4205 165.293C94.5871 165.119 94.7668 164.975 94.9594 164.859C95.1688 164.727 95.3567 164.573 95.5234 164.4C96.0233 163.878 96.4497 163.32 96.8025 162.724C97.1578 162.098 97.5854 161.524 98.0853 161.003C98.4852 160.586 98.9183 160.234 99.3845 159.947C99.8507 159.661 100.33 159.403 100.822 159.175C101.3 158.933 101.785 158.697 102.277 158.469C102.769 158.241 103.243 157.961 103.697 157.629C103.785 157.68 103.857 157.733 103.914 157.787C103.974 157.811 104.039 157.857 104.11 157.925L104.195 158.007L104.256 158.115C104.509 158.391 104.721 158.711 104.891 159.075C105.047 159.425 105.228 159.749 105.434 160.046C105.692 160.461 105.763 160.828 105.646 161.15C105.531 161.44 105.324 161.742 105.024 162.054C104.891 162.193 104.749 162.341 104.599 162.497C104.435 162.64 104.286 162.781 104.153 162.92C103.536 163.563 102.962 164.246 102.431 164.971C101.902 165.665 101.424 166.391 100.998 167.149C101.101 167.582 101.317 167.955 101.644 168.269C101.9 168.514 102.189 168.725 102.512 168.901C102.834 169.077 103.14 169.271 103.43 169.482C103.218 169.646 103.016 169.785 102.823 169.901C102.633 169.985 102.446 170.123 102.263 170.314C102.13 170.453 102.069 170.645 102.08 170.889C102.108 171.116 102.179 171.284 102.293 171.393C102.392 171.489 102.519 171.527 102.674 171.509C102.828 171.49 102.985 171.44 103.144 171.36C103.304 171.279 103.457 171.176 103.605 171.051C103.752 170.925 103.868 170.819 103.951 170.732L104.403 171.115C104.929 171.62 105.373 172.196 105.735 172.844C106.1 173.46 106.545 174.021 107.071 174.526C107.228 174.676 107.401 174.809 107.591 174.924C107.797 175.022 107.979 175.146 108.135 175.296C108.32 175.473 108.367 175.652 108.276 175.832C108.203 175.994 108.091 176.154 107.941 176.31C107.807 176.449 107.681 176.595 107.562 176.748C107.46 176.883 107.465 177.005 107.579 177.114C107.622 177.155 107.666 177.181 107.711 177.191C107.758 177.369 107.824 177.499 107.909 177.581C108.037 177.704 108.174 177.718 108.319 177.624C108.464 177.53 108.61 177.42 108.758 177.295C108.891 177.156 109.031 177.039 109.176 176.945C109.306 176.837 109.422 176.83 109.521 176.926C109.678 177.076 109.802 177.245 109.894 177.434C109.972 177.609 110.082 177.764 110.225 177.901C110.609 178.269 111.07 178.528 111.609 178.678C112.148 178.828 112.609 179.087 112.993 179.456C113.335 179.783 113.618 180.172 113.843 180.621C114.07 181.039 114.354 181.411 114.695 181.739C114.909 181.943 115.155 182.113 115.435 182.249C115.718 182.353 116.007 182.464 116.304 182.581C116.603 182.668 116.893 182.779 117.173 182.914C117.455 183.018 117.703 183.173 117.917 183.377C118.215 183.664 118.448 184.004 118.616 184.399C118.784 184.793 119.017 185.134 119.316 185.42C119.387 185.489 119.511 185.574 119.686 185.675C120.08 185.92 120.529 186.234 121.035 186.618C121.542 186.972 122.077 187.268 122.64 187.508C123.188 187.733 123.754 187.826 124.339 187.786C124.923 187.746 125.49 187.44 126.04 186.867C126.557 186.328 126.993 185.745 127.348 185.119C127.689 184.478 128.118 183.889 128.634 183.351C128.951 183.02 129.295 182.733 129.666 182.489C130.039 182.213 130.419 181.96 130.804 181.729C131.189 181.498 131.568 181.261 131.939 181.016C132.312 180.741 132.666 180.429 132.999 180.082C133.499 179.56 133.941 179 134.324 178.401C134.725 177.784 135.139 177.181 135.568 176.592C136.154 175.753 136.48 175.015 136.546 174.377C136.597 173.725 136.302 173.093 135.662 172.479C135.022 171.865 134.312 171.367 133.531 170.985C132.753 170.572 132.044 170.059 131.404 169.445C131.02 169.076 130.717 168.652 130.494 168.172C130.258 167.678 130.139 167.147 130.138 166.579C130.424 166.053 130.767 165.582 131.167 165.165C131.9 164.4 132.623 164.059 133.335 164.142C134.034 164.212 134.66 164.512 135.215 165.045C135.457 165.276 135.569 165.501 135.552 165.718C135.521 165.922 135.548 166.064 135.633 166.146C135.661 166.173 135.737 166.18 135.861 166.165C135.97 166.136 136.102 166.112 136.257 166.094C136.411 166.075 136.571 166.079 136.738 166.105C136.904 166.131 137.044 166.198 137.158 166.308C137.257 166.403 137.278 166.523 137.221 166.669C137.377 166.819 137.561 167.012 137.772 167.247C137.983 167.483 138.194 167.719 138.405 167.954C138.632 168.173 138.854 168.368 139.07 168.542C139.286 168.716 139.477 168.816 139.643 168.842L139.694 168.49Z" fill="#F11C29" fill-opacity="0.6"/>
<path d="M142.318 121.082C142.474 121.232 142.55 121.438 142.545 121.699C142.556 121.944 142.534 122.223 142.479 122.537C142.426 122.82 142.357 123.105 142.274 123.391C142.19 123.678 142.132 123.923 142.101 124.126C142.017 124.613 141.775 125.064 141.375 125.481C141.108 125.759 140.822 126.001 140.515 126.207C140.225 126.396 139.946 126.629 139.68 126.907C139.563 127.029 139.493 127.145 139.469 127.255C139.366 127.59 139.221 127.869 139.036 128.091C138.85 128.313 138.64 128.546 138.407 128.789C138.274 128.928 138.041 129.071 137.708 129.219C137.377 129.336 137.147 129.348 137.016 129.256L137.042 128.931C136.916 129.176 136.855 129.368 136.859 129.506C136.864 129.643 136.892 129.771 136.944 129.887C137.013 129.986 137.088 130.093 137.171 130.205C137.254 130.318 137.312 130.457 137.345 130.622C137.404 130.845 137.356 131.066 137.201 131.285C137.063 131.486 136.952 131.73 136.868 132.016C136.801 132.285 136.836 132.619 136.973 133.017C137.096 133.402 137.463 133.888 138.074 134.474C138.345 134.733 138.624 134.968 138.914 135.179C139.203 135.39 139.476 135.618 139.732 135.864C140.244 136.355 140.706 136.898 141.118 137.494C141.516 138.075 141.978 138.619 142.504 139.124C142.817 139.424 143.057 139.771 143.225 140.166C143.41 140.543 143.658 140.881 143.971 141.181C144.412 141.604 144.935 141.672 145.539 141.384C145.465 141.546 145.487 141.751 145.605 141.998C145.709 142.231 145.85 142.483 146.028 142.753C146.208 142.993 146.396 143.223 146.593 143.445C146.792 143.636 146.934 143.773 147.019 143.855C147.076 143.909 147.154 143.984 147.254 144.08C147.354 144.175 147.469 144.269 147.599 144.361C147.715 144.439 147.832 144.517 147.948 144.595C148.05 144.66 148.147 144.686 148.24 144.675C148.487 144.645 148.696 144.712 148.866 144.876C149.037 145.04 149.174 145.238 149.278 145.471C149.368 145.691 149.499 145.883 149.669 146.046C150.366 146.715 151.113 147.331 151.91 147.896C152.709 148.429 153.458 149.03 154.155 149.698C154.61 150.135 155.007 150.632 155.345 151.19C155.7 151.731 156.105 152.22 156.561 152.656C156.973 153.052 157.383 153.279 157.792 153.337C158.2 153.395 158.61 153.338 159.022 153.166C159.433 152.993 159.843 152.736 160.252 152.395C160.662 152.054 161.066 151.675 161.466 151.258C162.1 150.597 162.682 149.905 163.213 149.18C163.747 148.425 164.322 147.725 164.938 147.083C165.555 146.44 166.194 146.102 166.854 146.068C167.531 146.017 168.126 146.237 168.638 146.728C169.022 147.096 169.309 147.523 169.501 148.006C169.695 148.459 169.779 148.94 169.754 149.45C169.76 149.957 169.651 150.469 169.427 150.988C169.202 151.506 168.857 152.009 168.39 152.495C168.057 152.843 167.647 153.2 167.159 153.566C166.378 154.151 165.627 154.764 164.903 155.405C164.194 156.059 163.489 156.751 162.789 157.48C162.206 158.088 161.63 158.703 161.061 159.325C160.506 159.96 159.937 160.582 159.354 161.19C158.654 161.92 157.955 162.634 157.258 163.333C156.56 164.031 155.862 164.745 155.162 165.475C154.912 165.736 154.635 165.953 154.33 166.128C154.026 166.304 153.757 166.513 153.524 166.756C153.357 166.93 153.187 167.15 153.013 167.417C152.853 167.697 152.676 167.995 152.483 168.31C152.307 168.608 152.107 168.916 151.883 169.235C151.673 169.568 151.435 169.873 151.168 170.151C150.552 170.794 149.898 171.234 149.206 171.471C148.528 171.722 147.898 171.567 147.315 171.008C147.13 170.83 146.977 170.634 146.856 170.418C146.745 170.278 146.642 170.029 146.548 169.672C146.47 169.297 146.417 168.912 146.386 168.516C146.359 168.09 146.367 167.697 146.41 167.338C146.471 166.962 146.584 166.688 146.751 166.514C146.884 166.375 147.037 166.272 147.211 166.205C147.401 166.12 147.614 166.041 147.849 165.966C148.087 165.861 148.343 165.722 148.616 165.551C148.89 165.38 149.176 165.138 149.476 164.825C150.076 164.2 150.651 163.501 151.202 162.727C151.752 161.954 152.173 161.174 152.464 160.386C152.758 159.567 152.881 158.784 152.833 158.037C152.77 157.277 152.433 156.603 151.822 156.017C151.594 155.798 151.357 155.604 151.11 155.434C150.849 155.251 150.588 155.067 150.328 154.884C149.488 154.279 148.683 153.623 147.912 152.917C147.142 152.212 146.38 151.497 145.626 150.774C145.128 150.297 144.726 149.761 144.421 149.168C144.102 148.562 143.693 148.02 143.195 147.542C142.911 147.269 142.582 147.071 142.21 146.947C141.837 146.823 141.516 146.632 141.245 146.372C141.117 146.249 141.006 146.109 140.911 145.952C140.833 145.777 140.723 145.621 140.581 145.485C140.268 145.185 139.928 144.942 139.56 144.756C139.195 144.539 138.863 144.287 138.564 144C138.066 143.523 137.626 142.984 137.245 142.385C136.881 141.769 136.45 141.222 135.952 140.744C135.653 140.458 135.313 140.215 134.931 140.015C134.549 139.815 134.165 139.631 133.781 139.463C133.413 139.277 133.038 139.084 132.656 138.884C132.274 138.685 131.934 138.441 131.635 138.155C131.45 137.978 131.283 137.767 131.134 137.524C130.835 137.437 130.537 137.435 130.24 137.517C129.943 137.599 129.636 137.705 129.32 137.835C129.004 137.966 128.688 138.096 128.371 138.226C128.072 138.339 127.771 138.368 127.47 138.312C127.351 138.465 127.324 138.606 127.39 138.737C127.442 138.853 127.517 138.975 127.614 139.101C127.697 139.214 127.763 139.344 127.813 139.492C127.865 139.609 127.823 139.752 127.687 139.922C127.263 140.449 126.824 140.979 126.369 141.51C125.931 142.023 125.479 142.524 125.012 143.01C124.745 143.288 124.398 143.622 123.969 144.011C123.558 144.384 123.119 144.713 122.652 145C122.203 145.269 121.761 145.446 121.326 145.529C120.891 145.612 120.51 145.497 120.183 145.183C119.984 144.992 119.828 144.742 119.714 144.433C119.603 144.093 119.516 143.743 119.453 143.382C119.406 143.003 119.382 142.63 119.38 142.261C119.381 141.862 119.385 141.516 119.393 141.223C119.41 141.006 119.5 140.742 119.662 140.43C119.824 140.119 120.033 139.802 120.288 139.479C120.559 139.139 120.854 138.789 121.173 138.427C121.493 138.066 121.819 137.712 122.152 137.365C122.569 136.93 122.959 136.538 123.323 136.186C123.69 135.804 123.99 135.491 124.223 135.248C124.64 134.814 125.141 134.277 125.726 133.638C126.315 132.968 126.862 132.326 127.37 131.712C127.893 131.08 128.334 130.535 128.691 130.077C129.051 129.588 129.211 129.308 129.171 129.236C129.313 129.173 129.501 129.119 129.734 129.076C129.969 129.001 130.205 128.927 130.44 128.852C130.692 128.76 130.928 128.67 131.149 128.582C131.371 128.494 131.523 128.407 131.606 128.32C131.706 128.216 131.753 128.11 131.746 128.003C131.741 127.866 131.713 127.739 131.661 127.622C131.626 127.488 131.574 127.371 131.505 127.272C131.422 127.159 131.352 127.076 131.295 127.021L131.47 126.839C131.837 126.456 132.171 126.293 132.473 126.349C132.791 126.387 133.078 126.529 133.334 126.775C133.391 126.829 133.432 126.886 133.458 126.944C133.501 126.985 133.544 127.026 133.586 127.067C133.724 126.866 133.777 126.683 133.744 126.518C133.714 126.322 133.667 126.143 133.603 125.982C133.539 125.821 133.498 125.664 133.479 125.513C133.477 125.344 133.568 125.164 133.751 124.973C133.818 124.904 133.932 124.813 134.094 124.701L134.269 124.519C134.891 124.382 135.374 124.278 135.716 124.206C136.075 124.117 136.348 124.045 136.536 123.992C136.709 123.925 136.82 123.881 136.868 123.86C136.915 123.839 136.947 123.819 136.964 123.802C136.997 123.767 137.063 123.713 137.16 123.64C137.274 123.549 137.324 123.497 137.31 123.484C137.253 123.429 137.162 123.425 137.036 123.471C136.912 123.486 136.772 123.518 136.615 123.568C136.475 123.6 136.328 123.625 136.173 123.644C136.035 123.645 135.924 123.605 135.839 123.523C136.038 123.315 136.175 123.129 136.249 122.967C136.309 122.79 136.352 122.632 136.379 122.49C136.391 122.335 136.41 122.187 136.437 122.045C136.48 121.886 136.576 121.729 136.726 121.573C136.943 121.347 137.138 121.2 137.312 121.133C137.485 121.066 137.649 121.023 137.804 121.005C137.944 120.972 138.076 120.949 138.199 120.934C138.323 120.919 138.443 120.851 138.559 120.729C138.643 120.642 138.702 120.566 138.738 120.5C138.791 120.417 138.858 120.332 138.942 120.245C139.058 120.124 139.176 120.086 139.295 120.133C139.413 120.18 139.517 120.229 139.604 120.28C139.868 120.433 140.073 120.546 140.22 120.621C140.367 120.695 140.508 120.747 140.644 120.777C140.779 120.807 140.93 120.835 141.096 120.861C141.265 120.856 141.501 120.865 141.805 120.89C142.019 120.895 142.19 120.959 142.318 121.082ZM131.203 135.488C131.189 135.275 131.036 135.178 130.744 135.198C130.451 135.218 130.214 135.324 130.03 135.515C129.83 135.723 129.782 135.944 129.886 136.177C129.993 136.379 130.11 136.542 130.238 136.665C130.371 136.725 130.499 136.748 130.623 136.733C130.73 136.736 130.838 136.723 130.947 136.694C131.056 136.666 131.153 136.608 131.236 136.521C131.369 136.382 131.448 136.257 131.472 136.147C131.482 136.023 131.468 135.909 131.43 135.806C131.392 135.704 131.316 135.597 131.203 135.488Z" fill="#F11C29" fill-opacity="0.6"/>
<path d="M190.402 108.322C190.644 108.554 190.813 108.833 190.909 109.159C191.023 109.468 191.2 109.739 191.442 109.971C191.712 110.23 192.026 110.43 192.382 110.571C192.723 110.699 193.029 110.893 193.3 111.152C193.527 111.37 193.683 111.62 193.768 111.902C193.839 112.17 193.886 112.448 193.909 112.737C193.935 112.995 193.969 113.245 194.011 113.485C194.039 113.712 194.124 113.894 194.266 114.03C194.352 114.112 194.431 114.172 194.505 114.209C194.581 114.215 194.664 114.228 194.754 114.248C194.83 114.254 194.926 114.296 195.042 114.374C195.161 114.422 195.306 114.527 195.476 114.691L195.818 115.018C195.875 115.073 195.988 115.182 196.159 115.346C196.33 115.509 196.499 115.689 196.667 115.883C196.852 116.061 197.015 116.233 197.155 116.401C197.294 116.568 197.37 116.674 197.382 116.719C197.419 117.021 197.515 117.263 197.669 117.444C197.823 117.625 197.953 117.817 198.06 118.019C198.169 118.19 198.206 118.393 198.172 118.628C198.141 118.831 197.959 119.107 197.626 119.454C197.242 119.854 196.838 120.233 196.412 120.592C195.988 120.919 195.585 121.283 195.202 121.682C194.568 122.343 194.006 123.071 193.515 123.868C193.027 124.633 192.457 125.355 191.807 126.032C190.907 126.97 189.972 127.875 189.001 128.744C188.016 129.601 187.073 130.498 186.173 131.436C185.973 131.645 185.753 131.817 185.513 131.954C185.259 132.077 185.032 132.242 184.832 132.451C184.582 132.711 184.376 133.082 184.216 133.562C184.056 134.042 183.751 134.517 183.301 134.986C183.018 135.281 182.707 135.534 182.37 135.743C182.032 135.953 181.694 136.163 181.356 136.373C181.004 136.569 180.66 136.772 180.322 136.981C179.984 137.191 179.665 137.452 179.365 137.765C178.715 138.443 178.131 139.166 177.611 139.935C177.077 140.691 176.486 141.408 175.836 142.085C175.289 142.428 174.812 142.555 174.406 142.465C173.986 142.362 173.612 142.154 173.285 141.84C172.958 141.527 172.642 141.173 172.336 140.78C172.047 140.369 171.745 140.029 171.43 139.76C171.143 139.518 170.924 139.376 170.775 139.332C170.625 139.289 170.504 139.273 170.412 139.284C170.319 139.295 170.233 139.313 170.155 139.338C170.076 139.363 169.973 139.314 169.845 139.191C169.361 139.127 168.938 138.955 168.578 138.676C168.761 138.485 168.851 138.321 168.846 138.183C168.827 138.031 168.747 137.888 168.605 137.751C168.377 137.533 168.199 137.178 168.069 136.687C167.925 136.182 167.832 135.609 167.791 134.969C167.752 134.298 167.754 133.599 167.796 132.872C167.84 132.114 167.927 131.397 168.057 130.721C168.186 130.044 168.349 129.433 168.545 128.887C168.758 128.324 169.014 127.886 169.314 127.573L169.464 127.417C169.383 127.273 169.308 127.167 169.236 127.099C169.094 126.962 168.943 126.935 168.784 127.015C168.627 127.065 168.475 127.152 168.328 127.278C168.182 127.372 168.037 127.466 167.892 127.561C167.764 127.638 167.643 127.622 167.529 127.512C167.358 127.349 167.248 127.093 167.199 126.746C167.136 126.385 167.113 125.996 167.13 125.579C167.148 125.162 167.195 124.757 167.272 124.364C167.334 123.957 167.406 123.626 167.488 123.37L167.317 123.206C167.004 122.906 166.769 122.497 166.611 121.978C166.453 121.46 166.35 120.911 166.304 120.333C166.244 119.741 166.229 119.144 166.262 118.541C166.279 117.925 166.315 117.375 166.368 116.892C166.393 116.582 166.357 116.264 166.26 115.938C166.149 115.598 166.03 115.267 165.902 114.944C165.775 114.621 165.677 114.311 165.608 114.012C165.543 113.682 165.567 113.372 165.682 113.081C165.834 112.694 165.94 112.428 165.997 112.283C166.04 112.124 166.057 112.007 166.047 111.931C166.041 111.824 165.996 111.715 165.913 111.602C165.832 111.458 165.728 111.225 165.601 110.902C165.487 110.593 165.472 110.395 165.556 110.308C165.641 110.191 165.709 110.106 165.759 110.053C165.812 109.97 165.812 109.87 165.76 109.754C165.725 109.62 165.529 109.382 165.173 109.041C164.96 108.837 164.806 108.656 164.711 108.498C164.603 108.327 164.532 108.159 164.499 107.994C164.452 107.815 164.428 107.626 164.429 107.426C164.432 107.195 164.43 106.927 164.423 106.62C164.431 106.328 164.419 105.999 164.386 105.634C164.354 105.269 164.297 104.915 164.217 104.571C164.137 104.228 164.025 103.903 163.881 103.598C163.753 103.276 163.59 103.019 163.391 102.828C163.007 102.46 162.609 102.362 162.198 102.534C161.803 102.689 161.408 102.945 161.013 103.299C160.604 103.641 160.195 103.982 159.785 104.323C159.362 104.651 158.938 104.794 158.512 104.753C158.312 104.962 158.171 105.21 158.087 105.496C158.02 105.765 157.96 106.041 157.907 106.324C157.84 106.594 157.773 106.863 157.706 107.132C157.641 107.37 157.517 107.585 157.334 107.776C157.15 107.967 156.885 108.13 156.538 108.264C156.208 108.38 155.876 108.613 155.543 108.96C155.243 109.273 154.957 109.599 154.685 109.939C154.416 110.248 154.132 110.559 153.832 110.872C153.549 111.167 153.245 111.426 152.922 111.65C152.598 111.873 152.295 112.133 152.011 112.428C151.678 112.775 151.497 113.135 151.468 113.507C151.438 113.88 151.486 114.242 151.611 114.596C151.753 114.932 151.95 115.254 152.201 115.562C152.452 115.869 152.684 116.125 152.898 116.33C153.225 116.644 153.576 116.947 153.95 117.24C154.325 117.532 154.683 117.843 155.024 118.17C155.195 118.334 155.436 118.581 155.746 118.912C156.042 119.23 156.312 119.589 156.556 119.99C156.802 120.359 156.963 120.747 157.038 121.153C157.113 121.558 157.009 121.909 156.726 122.204C156.609 122.326 156.487 122.425 156.358 122.502C156.216 122.565 156.082 122.62 155.956 122.666C155.309 122.913 154.8 122.959 154.43 122.804C154.06 122.649 153.711 122.415 153.384 122.101C153.285 122.005 153.185 121.91 153.085 121.814C152.988 121.688 152.883 121.57 152.769 121.461C152.712 121.406 152.532 121.267 152.228 121.042C151.911 120.804 151.579 120.552 151.232 120.287C150.872 120.008 150.539 119.772 150.233 119.578C149.943 119.367 149.784 119.248 149.756 119.221C149.751 119.283 149.738 119.354 149.716 119.433C149.711 119.495 149.684 119.552 149.634 119.604C149.584 119.656 149.507 119.666 149.402 119.632C149.298 119.599 149.187 119.543 149.071 119.465C148.955 119.387 148.846 119.315 148.744 119.251C148.644 119.155 148.58 119.094 148.552 119.067C148.225 118.753 147.937 118.427 147.688 118.088C147.425 117.736 147.13 117.403 146.803 117.089C146.561 116.857 146.412 116.614 146.356 116.36C146.316 116.088 146.307 115.813 146.329 115.533C146.351 115.254 146.373 114.975 146.395 114.696C146.419 114.386 146.397 114.081 146.329 113.782C146.386 113.637 146.465 113.512 146.565 113.408C146.765 113.2 146.992 113.034 147.247 112.911C147.487 112.775 147.707 112.602 147.907 112.394C147.99 112.307 148.046 112.177 148.075 112.005C148.106 111.801 148.156 111.565 148.223 111.296C148.29 111.026 148.396 110.745 148.542 110.451C148.69 110.125 148.922 109.798 149.238 109.468C149.872 108.808 150.567 108.24 151.323 107.764C152.096 107.272 152.799 106.695 153.432 106.035C153.932 105.514 154.266 104.967 154.433 104.394C154.637 103.755 154.894 103.201 155.207 102.733C155.535 102.248 155.941 101.754 156.425 101.25C156.858 100.798 157.313 100.367 157.789 99.9561C158.267 99.5143 158.731 99.0589 159.181 98.5898C159.848 97.8949 160.47 97.1746 161.049 96.4288C161.614 95.6694 162.229 94.9422 162.896 94.2473C163.146 93.9867 163.411 93.7242 163.692 93.4599C163.973 93.1956 164.267 92.9604 164.574 92.7544C164.783 92.6215 164.941 92.5564 165.048 92.5588C165.141 92.5476 165.231 92.5675 165.319 92.6183C165.409 92.6381 165.498 92.6735 165.586 92.7243C165.676 92.7441 165.807 92.7361 165.978 92.7C166.227 92.6392 166.466 92.5181 166.695 92.337C166.923 92.1558 167.186 92.0242 167.483 91.9422C167.797 91.8429 168.162 91.8602 168.58 91.9941C168.998 92.1279 169.513 92.4882 170.124 93.0749C170.309 93.2522 170.43 93.5679 170.486 94.022C170.558 94.4587 170.63 94.811 170.701 95.079C170.809 95.4499 170.95 95.8016 171.123 96.134C171.298 96.4354 171.431 96.7803 171.523 97.1686C171.568 97.3783 171.595 97.6208 171.603 97.8962C171.629 98.1543 171.646 98.421 171.655 98.6964C171.681 98.9545 171.722 99.2106 171.778 99.4649C171.851 99.7019 171.966 99.8954 172.123 100.045C172.151 100.073 172.172 100.093 172.187 100.107C172.218 100.103 172.247 100.115 172.276 100.142C171.909 100.524 171.716 100.939 171.696 101.387C171.678 101.804 171.729 102.236 171.846 102.683C171.967 103.098 172.095 103.505 172.232 103.903C172.386 104.284 172.444 104.607 172.408 104.873C172.343 105.311 172.271 105.742 172.192 106.166C172.112 106.59 171.942 107.01 171.68 107.426C171.85 107.79 171.971 108.19 172.044 108.626C172.119 109.032 172.193 109.453 172.266 109.89C172.324 110.313 172.398 110.734 172.488 111.153C172.579 111.542 172.735 111.892 172.956 112.203C173.093 112.401 173.141 112.564 173.101 112.692C173.06 112.82 173.012 112.941 172.958 113.055C172.905 113.138 172.888 113.256 172.907 113.407C172.928 113.527 173.059 113.703 173.301 113.935C173.415 114.044 173.452 114.163 173.411 114.291C173.356 114.405 173.277 114.53 173.175 114.665C173.073 114.8 172.962 114.944 172.843 115.097C172.74 115.232 172.691 115.368 172.696 115.506C172.784 115.557 172.856 115.61 172.913 115.664C172.986 115.701 173.059 115.754 173.13 115.822C173.343 116.027 173.484 116.279 173.552 116.578C173.637 116.859 173.666 117.171 173.639 117.512C173.615 117.822 173.543 118.153 173.423 118.506C173.321 118.841 173.189 119.149 173.03 119.429L173.311 119.648C173.524 119.853 173.641 120.115 173.662 120.436C173.668 120.742 173.665 121.073 173.652 121.427C173.642 121.751 173.655 122.08 173.69 122.414C173.724 122.747 173.877 123.044 174.147 123.303C174.261 123.412 174.326 123.558 174.342 123.74C174.344 123.909 174.33 124.095 174.298 124.299C174.267 124.502 174.22 124.708 174.158 124.915C174.113 125.105 174.077 125.27 174.05 125.412C173.973 125.805 173.957 126.106 174.002 126.316C174.047 126.526 174.101 126.711 174.165 126.872C174.229 127.034 174.307 127.209 174.399 127.397C174.493 127.555 174.575 127.783 174.643 128.082C174.685 128.323 174.709 128.612 174.713 128.949C174.717 129.287 174.736 129.622 174.771 129.956C174.806 130.29 174.858 130.606 174.926 130.905C174.994 131.204 175.106 131.428 175.263 131.579C175.419 131.729 175.604 131.806 175.818 131.811C176.049 131.799 176.282 131.755 176.517 131.681C176.738 131.592 176.962 131.473 177.188 131.323C177.413 131.173 177.601 131.02 177.751 130.863C178.051 130.551 178.323 130.211 178.566 129.843C178.795 129.462 179.068 129.107 179.384 128.777C180.334 127.786 181.324 126.868 182.355 126.022C183.387 125.144 184.379 124.211 185.328 123.22C185.678 122.855 186.1 122.359 186.593 121.731C187.072 121.09 187.498 120.431 187.873 119.756C188.25 119.05 188.502 118.375 188.629 117.73C188.742 117.071 188.606 116.557 188.222 116.189C188.151 116.121 188.079 116.068 188.005 116.031C187.934 115.962 187.863 115.894 187.792 115.826C187.55 115.594 187.297 115.318 187.031 114.996C186.768 114.644 186.525 114.328 186.303 114.047C186.097 113.75 185.932 113.508 185.809 113.324C185.703 113.121 185.678 113.048 185.735 113.102C185.635 113.007 185.507 112.984 185.35 113.033C185.196 113.052 185.061 113.007 184.948 112.898C184.791 112.748 184.662 112.54 184.561 112.276C184.461 111.981 184.341 111.765 184.199 111.629C184.099 111.533 183.991 111.446 183.875 111.368C183.761 111.259 183.633 111.136 183.491 111C183.334 110.85 183.254 110.706 183.249 110.568C183.231 110.417 183.242 110.277 183.282 110.149C183.34 110.004 183.38 109.876 183.404 109.766C183.428 109.656 183.398 109.559 183.312 109.478C183.198 109.368 183.042 109.318 182.842 109.327C182.659 109.318 182.504 109.253 182.376 109.13C182.205 108.966 182.199 108.76 182.356 108.51C182.513 108.261 182.667 108.058 182.817 107.902C183.167 107.537 183.458 107.333 183.691 107.289C183.926 107.215 184.133 107.213 184.311 107.283C184.506 107.337 184.698 107.421 184.888 107.536C185.094 107.634 185.336 107.666 185.614 107.633C185.814 107.624 186.002 107.571 186.178 107.473C186.356 107.344 186.535 107.214 186.713 107.085C186.877 106.943 187.048 106.807 187.227 106.678C187.405 106.549 187.594 106.48 187.794 106.471C187.884 106.691 188.028 106.896 188.227 107.087C188.526 107.373 188.884 107.584 189.302 107.717C189.736 107.834 190.103 108.035 190.402 108.322ZM152.851 118.087C152.723 117.964 152.564 117.945 152.374 118.029C152.184 118.114 152.015 118.219 151.867 118.344C151.905 118.447 151.959 118.532 152.03 118.601C152.087 118.655 152.151 118.717 152.222 118.785C152.294 118.853 152.394 118.933 152.525 119.025C152.658 119.086 152.774 119.064 152.874 118.96C152.991 118.838 153.041 118.686 153.025 118.504C153.009 118.321 152.951 118.182 152.851 118.087ZM192.565 116.701C192.479 116.619 192.367 116.595 192.226 116.627C192.089 116.628 191.97 116.681 191.87 116.785C191.703 116.959 191.673 117.147 191.779 117.349C191.903 117.534 192.021 117.681 192.135 117.79C192.268 117.651 192.412 117.472 192.567 117.254C192.708 117.022 192.707 116.838 192.565 116.701Z" fill="#F11C29" fill-opacity="0.6"/>
<path d="M228.682 84.5573C228.838 84.7074 228.945 84.9096 229.001 85.1639C229.043 85.4046 229.054 85.6645 229.032 85.9437C228.995 86.2092 228.928 86.4784 228.83 86.7514C228.718 87.0107 228.579 87.2272 228.412 87.4009C228.296 87.5226 228.172 87.6373 228.041 87.7453C227.91 87.8533 227.786 87.9681 227.67 88.0897C227.52 88.246 227.462 88.3912 227.498 88.5252C227.519 88.6455 227.547 88.7727 227.582 88.9067C227.634 89.0233 227.654 89.1591 227.642 89.3142C227.644 89.4829 227.537 89.6802 227.32 89.9061C227.187 90.045 227.031 90.1791 226.853 90.3082C226.674 90.4372 226.51 90.5799 226.36 90.7363C226.043 91.0664 225.785 91.4355 225.584 91.8438C225.415 92.2483 225.163 92.6242 224.83 92.9717C224.547 93.267 224.079 93.6691 223.427 94.178C222.79 94.7004 222.094 95.1838 221.34 95.6282C220.617 96.0688 219.925 96.4058 219.264 96.6392C218.589 96.859 218.095 96.8188 217.782 96.5186C217.54 96.2867 217.457 95.8897 217.532 95.3277C217.609 94.7346 217.698 94.0864 217.799 93.3829C217.886 92.6658 217.896 91.958 217.829 91.2596C217.778 90.5437 217.497 89.9402 216.985 89.4491C216.686 89.1626 216.319 88.9611 215.885 88.8446C215.467 88.7107 215.029 88.6407 214.571 88.6346C214.098 88.6149 213.613 88.6504 213.117 88.7411C212.637 88.8144 212.179 88.8926 211.744 88.9759C211.632 89.0355 211.493 89.1521 211.327 89.3259C210.877 89.7949 210.469 90.3049 210.105 90.8559C209.726 91.3932 209.312 91.8963 208.862 92.3654C208.628 92.6086 208.358 92.8333 208.051 93.0393C207.761 93.2279 207.461 93.2566 207.15 93.1251C206.901 93.7542 206.646 94.3765 206.383 94.9919C206.107 95.5936 205.807 96.1905 205.485 96.7823C205.287 97.1595 205.143 97.4381 205.052 97.618C204.978 97.7806 204.936 97.9239 204.927 98.0479C204.934 98.1546 204.977 98.2799 205.058 98.4238C205.155 98.5503 205.26 98.768 205.373 99.0769C205.449 99.2828 205.544 99.4404 205.658 99.5495C205.771 99.6587 205.899 99.7815 206.042 99.9179C206.226 100.095 206.334 100.282 206.365 100.478C206.381 100.66 206.389 100.851 206.388 101.051C206.39 101.22 206.4 101.395 206.416 101.578C206.432 101.76 206.518 101.926 206.675 102.076C206.803 102.199 206.942 102.282 207.091 102.326L207.173 102.454C207.386 102.659 207.624 102.753 207.885 102.737C208.132 102.707 208.383 102.631 208.637 102.508C208.894 102.354 209.159 102.191 209.433 102.02C209.706 101.849 209.969 101.717 210.221 101.625C210.473 101.533 210.774 101.505 211.123 101.539C211.474 101.543 211.822 101.593 212.166 101.69C212.513 101.755 212.842 101.854 213.153 101.985C213.449 102.103 213.676 102.237 213.832 102.387L213.939 102.49L213.614 102.828C212.948 103.523 212.309 104.245 211.7 104.995C211.092 105.713 210.492 106.439 209.899 107.171C209.321 107.917 208.719 108.657 208.095 109.393C207.502 110.125 206.872 110.839 206.206 111.534C205.973 111.777 205.624 112.126 205.16 112.582C204.712 113.02 204.236 113.431 203.732 113.814C203.242 114.211 202.759 114.515 202.283 114.726C201.81 114.906 201.431 114.86 201.147 114.587C200.848 114.301 200.674 113.984 200.625 113.636C200.593 113.272 200.637 112.898 200.759 112.514C200.884 112.1 201.062 111.687 201.293 111.275C201.527 110.832 201.759 110.404 201.99 109.992C202.238 109.563 202.461 109.16 202.659 108.782C202.874 108.388 203.01 108.018 203.068 107.673C203.126 107.328 203.065 106.936 202.885 106.497C202.691 106.044 202.451 105.597 202.165 105.156C201.878 104.714 201.59 104.288 201.301 103.877C200.998 103.453 200.765 103.113 200.602 102.856C200.547 102.77 200.47 102.68 200.371 102.584C200.274 102.458 200.168 102.34 200.054 102.231C199.957 102.104 199.859 101.993 199.759 101.898C199.676 101.785 199.63 101.691 199.621 101.615C199.546 101.209 199.528 100.942 199.569 100.815C199.626 100.67 199.658 100.566 199.662 100.504C199.684 100.424 199.638 100.33 199.524 100.221C199.413 100.081 199.165 99.8266 198.781 99.4582C198.61 99.2945 198.524 99.1283 198.522 98.9596C198.506 98.7772 198.504 98.6085 198.516 98.4534C198.545 98.2809 198.572 98.124 198.599 97.9826C198.611 97.8275 198.56 97.6954 198.446 97.5862C198.247 97.3952 198.003 97.2942 197.713 97.2831C197.409 97.2583 197.158 97.1505 196.958 96.9595C196.845 96.8503 196.778 96.7201 196.76 96.5687C196.741 96.4174 196.738 96.2641 196.75 96.1091C196.779 95.9366 196.791 95.7815 196.787 95.6438C196.768 95.4925 196.702 95.3622 196.588 95.2531C196.431 95.103 196.233 94.9963 195.993 94.9331C195.77 94.8525 195.581 94.7372 195.424 94.5872C195.31 94.478 195.274 94.3595 195.314 94.2317C195.358 94.0729 195.415 93.9277 195.486 93.7962C195.575 93.6473 195.653 93.5226 195.722 93.4221C195.794 93.2906 195.808 93.2044 195.766 93.1634C195.63 93.1337 195.496 93.1883 195.363 93.3273C195.163 93.5358 195.155 93.7287 195.34 93.9061C195.152 93.9594 194.974 93.9886 194.805 93.9937C194.623 93.985 194.474 93.9261 194.36 93.817C194.218 93.6806 194.132 93.5143 194.101 93.3183C194.057 93.1086 194.006 92.8767 193.95 92.6224C193.91 92.3507 193.832 92.0759 193.716 91.798C193.6 91.5202 193.4 91.2448 193.116 90.9719C192.817 90.6854 192.483 90.4647 192.112 90.3097C191.728 90.141 191.393 89.9203 191.109 89.6474C190.967 89.511 190.858 89.3398 190.782 89.1339C190.723 88.9106 190.68 88.6854 190.652 88.4584C190.626 88.2004 190.599 87.9578 190.571 87.7308C190.546 87.4727 190.48 87.2426 190.373 87.0404C190.203 86.677 189.969 86.352 189.67 86.0655C189.388 85.7616 189.098 85.4664 188.799 85.1799C188.517 84.876 188.25 84.5703 187.999 84.2626C187.75 83.924 187.581 83.545 187.492 83.1257C187.414 82.7511 187.346 82.4521 187.287 82.2288C187.228 82.0055 187.168 81.7977 187.107 81.6054C187.031 81.3995 186.94 81.1955 186.834 80.9932C186.713 80.7774 186.543 80.5138 186.322 80.2025C185.993 79.7199 185.72 79.2076 185.502 78.6655C185.302 78.1061 185.028 77.5937 184.683 77.1286C184.403 76.7937 184.157 76.5239 183.943 76.3193C183.732 76.0836 183.575 75.8492 183.471 75.616C183.383 75.3654 183.367 75.0831 183.423 74.7692C183.495 74.438 183.667 74.0025 183.939 73.4627C184.244 72.8882 184.592 72.3547 184.982 71.862C185.359 71.3558 185.764 70.8768 186.197 70.4251C186.697 69.9039 187.235 69.3858 187.811 68.8708C188.102 69.0506 188.431 69.1491 188.797 69.1664C189.149 69.17 189.508 69.165 189.877 69.1512C190.262 69.1201 190.637 69.1132 191.003 69.1305C191.371 69.1167 191.709 69.1911 192.018 69.3535C192.428 69.5804 192.791 69.8285 193.106 70.0976C193.424 70.3357 193.85 70.4609 194.385 70.4732C194.658 70.5017 194.901 70.6182 195.114 70.8229C195.442 71.1367 195.705 71.4889 195.903 71.8797C196.102 72.2704 196.358 72.6159 196.671 72.916C196.856 73.0934 197.228 73.3172 197.788 73.5876C198.348 73.8579 198.969 74.1362 199.65 74.4226C200.317 74.6954 200.968 74.97 201.604 75.2465C202.226 75.5094 202.707 75.7202 203.046 75.8789C203.736 76.241 204.366 76.6949 204.935 77.2406C205.521 77.769 206.184 78.1881 206.924 78.4981C207.693 78.8354 208.437 79.1987 209.156 79.588C209.861 79.9638 210.537 80.4121 211.184 80.933C211.772 81.4304 212.396 81.8619 213.055 82.2277C213.701 82.5799 214.362 82.9302 215.038 83.2787C215.7 83.6135 216.352 83.9725 216.995 84.3556C217.655 84.7215 218.269 85.1772 218.838 85.723C219.051 85.9276 219.247 86.1652 219.425 86.4356C219.619 86.6886 219.71 86.9925 219.697 87.3474C220.402 87.3236 221.178 87.2837 222.024 87.2277C222.886 87.1542 223.655 87.0076 224.33 86.7879C224.582 86.696 224.904 86.4881 225.297 86.1642C225.69 85.8403 226.097 85.53 226.518 85.2334C226.941 84.9058 227.35 84.6644 227.745 84.5092C228.142 84.323 228.454 84.339 228.682 84.5573ZM206.708 84.4458C206.58 84.323 206.359 84.2269 206.043 84.1575C205.713 84.0745 205.345 83.9883 204.939 83.8991C204.549 83.7925 204.147 83.6568 203.732 83.4919C203.316 83.327 202.945 83.0876 202.618 82.7738C202.234 82.4055 201.79 82.1134 201.287 81.8977C200.77 81.6683 200.294 81.3955 199.86 81.0792C199.514 80.8138 199.131 80.5298 198.711 80.2272C198.294 79.8936 197.855 79.6393 197.394 79.4645C196.92 79.2761 196.434 79.2272 195.937 79.3179C195.443 79.3776 194.938 79.6767 194.421 80.2153C194.502 80.3592 194.529 80.5018 194.502 80.6433C194.462 80.7711 194.404 80.9162 194.33 81.0788C194.259 81.2103 194.179 81.3505 194.091 81.4994C194.002 81.6483 193.961 81.7916 193.965 81.9293C194.024 81.9529 194.097 82.0056 194.182 82.0874C194.438 82.333 194.613 82.6345 194.708 82.9917C194.804 83.318 194.916 83.6424 195.044 83.9649C195.169 84.3185 195.342 84.6509 195.562 84.9623C195.785 85.2426 196.024 85.5055 196.28 85.7511C196.508 85.9694 196.736 86.1722 196.966 86.3595C197.197 86.5468 197.418 86.7427 197.632 86.9474C197.959 87.2612 198.21 87.5688 198.385 87.8702C198.546 88.158 198.684 88.4408 198.8 88.7187C198.916 88.9966 199.033 89.2589 199.151 89.5058C199.255 89.739 199.407 89.9511 199.606 90.1421C200.033 90.5514 200.419 90.8888 200.765 91.1542C201.112 91.4196 201.45 91.5938 201.78 91.6768C202.095 91.7462 202.419 91.7226 202.749 91.6059C203.065 91.4755 203.415 91.2106 203.798 90.811C204.065 90.533 204.42 90.1061 204.863 89.5304C205.322 88.9372 205.738 88.3187 206.11 87.6747C206.485 86.9997 206.748 86.3687 206.902 85.7819C207.072 85.1776 207.007 84.7323 206.708 84.4458Z" fill="#F11C29" fill-opacity="0.6"/>
<path d="M245.993 42.0806C246.42 42.4899 246.868 43.0196 247.337 43.6695C247.792 44.3059 248.24 45.0198 248.683 45.8112C249.128 46.5715 249.561 47.3872 249.982 48.258C250.419 49.1114 250.819 49.9618 251.181 50.809C251.528 51.6426 251.832 52.4508 252.091 53.2336C252.353 53.9854 252.546 54.6534 252.668 55.2377C252.71 55.4784 252.701 55.7867 252.641 56.1626C252.583 56.5075 252.531 56.8748 252.485 57.2643C252.425 57.6403 252.39 57.9901 252.38 58.3139C252.37 58.6377 252.436 58.8679 252.578 59.0043C252.459 59.1569 252.286 59.4082 252.06 59.7581C251.819 60.0944 251.583 60.4685 251.352 60.8804C251.123 61.2614 250.925 61.6386 250.758 62.0121C250.593 62.3545 250.529 62.5927 250.564 62.7267C250.679 63.2043 250.762 63.517 250.812 63.6646C250.878 63.7948 250.9 63.8997 250.879 63.9791C250.843 64.0448 250.75 64.1559 250.6 64.3122C250.452 64.4376 250.214 64.7428 249.885 65.228C249.764 65.4117 249.615 65.6524 249.438 65.9502C249.279 66.2306 249.102 66.5284 248.909 66.8436C248.733 67.1414 248.551 67.4168 248.362 67.67C248.188 67.9368 248.035 68.1396 247.901 68.2786C247.535 68.6608 247.127 68.9866 246.677 69.2559C246.244 69.5079 245.845 69.825 245.478 70.2072C245.245 70.4504 245.065 70.6949 244.938 70.9406C244.521 71.7744 244.072 72.5276 243.59 73.2001C243.126 73.8553 242.56 74.5303 241.894 75.2252L237.964 78.5109C237.754 78.8434 237.523 79.1555 237.271 79.4471C237.032 79.7523 236.78 80.044 236.513 80.3219C236.18 80.6694 235.832 81.0032 235.471 81.3234C235.126 81.6262 234.765 81.9309 234.389 82.2374C234.126 82.0849 233.843 81.9807 233.542 81.925C233.243 81.8382 232.944 81.7514 232.645 81.6647C232.345 81.5779 232.055 81.4824 231.772 81.3783C231.475 81.2605 231.22 81.0993 231.007 80.8946C230.637 80.5399 230.482 80.1746 230.543 79.7987C230.589 79.4091 230.75 79.0133 231.026 78.6113C231.288 78.1956 231.589 77.783 231.927 77.3735C232.267 76.933 232.54 76.4776 232.746 76.0073C232.951 75.5371 233.027 75.0594 232.973 74.5744C232.919 74.0893 232.622 73.5875 232.082 73.0691C231.755 72.7553 231.394 72.4762 231 72.2319C230.623 71.9702 230.23 71.7259 229.819 71.499C229.411 71.2411 229.01 70.9899 228.616 70.7456C228.239 70.484 227.887 70.1962 227.56 69.8824C227.318 69.6505 227.108 69.3993 226.931 69.1289C226.739 68.8448 226.522 68.5869 226.28 68.3549C225.839 67.932 225.364 67.5593 224.854 67.2368C224.346 66.8834 223.872 66.4952 223.431 66.0723C222.919 65.5811 222.448 65.062 222.016 64.515C221.571 63.9544 221.092 63.4284 220.58 62.9373C220.097 62.4734 219.569 62.084 218.997 61.769C218.428 61.423 217.894 61.0113 217.396 60.5338C217.126 60.2746 216.864 60.0066 216.611 59.73C216.357 59.4534 216.095 59.1855 215.825 58.9263C215.512 58.6262 215.197 58.357 214.879 58.1189C214.547 57.8671 214.181 57.6501 213.783 57.4679C213.31 57.2484 212.895 56.9836 212.537 56.6736C212.179 56.3635 211.823 56.1223 211.47 55.9499C211.102 55.7639 210.702 55.697 210.27 55.7492C209.823 55.7878 209.275 56.046 208.625 56.5238C208.414 56.6876 208.229 56.7944 208.072 56.844C207.918 56.8627 207.771 56.8882 207.63 56.9205C207.476 56.9391 207.304 56.9906 207.113 57.0751C206.94 57.1421 206.714 57.2923 206.435 57.5256C205.617 58.2081 204.902 58.2561 204.29 57.6694C203.949 57.342 203.725 56.9773 203.619 56.5753C203.499 56.1598 203.449 55.728 203.469 55.2802C203.489 54.8323 203.555 54.3788 203.667 53.9198C203.783 53.4297 203.889 52.9483 203.988 52.4756C204.136 51.751 204.374 51.1617 204.7 50.7075C205.013 50.2397 205.385 49.7799 205.819 49.3282L206.893 48.2077C207.377 47.7039 207.837 47.1951 208.276 46.6813C208.716 46.1366 209.178 45.6123 209.661 45.1085C209.945 44.8131 210.242 44.5314 210.554 44.2634C210.882 43.9779 211.224 43.7217 211.578 43.4945C211.771 43.3791 211.962 43.2792 212.152 43.1948C212.345 43.0794 212.516 42.9435 212.666 42.7871C212.9 42.5439 213.043 42.2808 213.096 41.9979C213.134 41.7014 213.22 41.4837 213.354 41.3447C213.387 41.3099 213.418 41.3062 213.446 41.3335C213.475 41.3608 213.502 41.4036 213.528 41.4619C213.556 41.4892 213.585 41.5164 213.613 41.5437C213.699 41.6256 213.808 41.597 213.941 41.458C214.025 41.3712 214.04 41.2694 213.988 41.1528C213.953 41.0189 213.996 40.86 214.117 40.6764C214.277 40.5957 214.418 40.5479 214.542 40.533C214.651 40.5044 214.752 40.4846 214.845 40.4734C214.954 40.4448 215.065 40.4007 215.176 40.3411C215.305 40.2642 215.444 40.1475 215.594 39.9912C215.944 39.6264 216.273 39.241 216.58 38.8353C216.873 38.4159 217.194 38.0237 217.544 37.6589C217.994 37.1898 218.475 36.8169 218.986 36.5401C219.498 36.2633 220.019 36.0467 220.552 35.8902C221.087 35.7028 221.633 35.5599 222.192 35.4618C222.75 35.3636 223.301 35.2587 223.846 35.1469C224.25 35.0674 224.618 34.9537 224.951 34.806C225.286 34.6273 225.612 34.4727 225.928 34.3424C226.23 34.1984 226.552 34.0904 226.894 34.0183C227.222 33.9327 227.597 33.9412 228.017 34.0441C228.482 34.1569 228.965 34.2368 229.466 34.2838C229.97 34.2998 230.465 34.3245 230.952 34.3579C231.441 34.3602 231.937 34.3849 232.438 34.4319C232.925 34.4653 233.408 34.5452 233.887 34.6716C235.115 35.0149 236.26 35.5295 237.323 36.2153C238.388 36.8701 239.446 37.518 240.497 38.1592C240.95 38.427 241.418 38.693 241.903 38.9572C242.372 39.2076 242.792 39.5103 243.162 39.865C243.361 40.056 243.511 40.2836 243.613 40.5478C243.715 40.8121 243.865 41.0397 244.064 41.2307C244.192 41.3535 244.331 41.4366 244.48 41.4799C244.63 41.5233 244.788 41.558 244.954 41.584C245.12 41.61 245.292 41.6584 245.47 41.7291C245.648 41.7997 245.823 41.9169 245.993 42.0806ZM240.39 45.0615C239.835 44.5294 239.203 44.1065 238.493 43.7928C237.784 43.4791 237.01 43.3037 236.171 43.2667C236.198 42.9256 236.13 42.6266 235.966 42.3698C235.803 42.1131 235.622 41.8892 235.423 41.6981C235.209 41.4935 234.979 41.3062 234.733 41.1363C234.502 40.9491 234.288 40.7599 234.089 40.5689C233.975 40.4598 233.825 40.4164 233.64 40.4388C233.471 40.4438 233.293 40.473 233.105 40.5264C232.92 40.5487 232.734 40.5866 232.546 40.64C232.344 40.6798 232.161 40.6711 231.997 40.6141C231.788 40.5472 231.617 40.4833 231.484 40.4226C231.354 40.3308 231.231 40.2458 231.114 40.1677C230.998 40.0896 230.858 40.022 230.694 39.965C230.531 39.9079 230.312 39.8652 230.039 39.8367C229.842 39.8144 229.669 39.7816 229.519 39.7382C229.355 39.6812 229.195 39.5776 229.039 39.4276C228.897 39.2911 228.772 39.1218 228.666 38.9196C228.485 38.88 228.284 38.9042 228.063 38.9924C227.828 39.0669 227.597 39.1792 227.371 39.3294C227.115 39.4833 226.847 39.6769 226.569 39.9102C226.319 40.1708 225.988 40.3874 225.577 40.5599C225.182 40.7151 224.756 40.874 224.3 41.0367C223.844 41.1993 223.393 41.3843 222.948 41.5916C222.52 41.7815 222.148 42.0415 221.832 42.3716C221.348 42.8754 220.909 43.4047 220.513 43.9593C220.118 44.514 219.707 45.0705 219.281 45.6289C218.957 46.0521 218.585 46.4963 218.166 46.9617C217.733 47.4134 217.36 47.8731 217.048 48.3409C216.752 48.7913 216.579 49.2423 216.528 49.6939C216.463 50.1319 216.637 50.5487 217.05 50.9444C217.547 51.4219 218.086 51.8715 218.664 52.2932C219.26 52.6974 219.828 53.1588 220.368 53.6773C221.492 54.7551 222.557 55.8937 223.564 57.0931C224.574 58.2615 225.647 59.3915 226.785 60.483C227.311 60.9878 227.871 61.4578 228.464 61.8931C229.043 62.3148 229.602 62.7849 230.143 63.3033C230.84 63.9718 231.463 64.703 232.012 65.4969C232.578 66.2734 233.21 66.9959 233.907 67.6644C234.191 67.9373 234.497 68.2306 234.824 68.5444C235.151 68.8582 235.498 69.1236 235.863 69.3406C236.228 69.5576 236.624 69.6866 237.049 69.7274C237.474 69.7682 237.927 69.6521 238.407 69.379C239.08 68.9905 239.745 68.6107 240.401 68.2396C241.06 67.8375 241.673 67.3411 242.239 66.7504C242.573 66.4029 242.834 66.0028 243.022 65.5499C243.197 65.0834 243.408 64.6354 243.656 64.2061C243.815 63.9257 244.007 63.626 244.231 63.3071C244.458 62.9572 244.676 62.616 244.885 62.2834C245.081 61.9372 245.246 61.5948 245.379 61.256C245.516 60.8863 245.589 60.5395 245.599 60.2157C245.607 59.7232 245.635 59.2666 245.684 58.846C245.732 58.4254 245.929 57.9639 246.275 57.4613C246.446 57.2256 246.514 57.0407 246.479 56.9067C246.446 56.7417 246.381 56.596 246.284 56.4695C246.189 56.3119 246.103 56.1457 246.025 55.9708C245.932 55.7822 245.92 55.5533 245.987 55.2841C246.083 54.8424 246.084 54.4429 245.989 54.0856C245.912 53.711 245.778 53.3661 245.589 53.0511C245.4 52.736 245.194 52.4383 244.971 52.158C244.751 51.8466 244.554 51.5247 244.382 51.1923C243.996 50.4554 243.628 49.6857 243.278 48.8831C242.945 48.0632 242.48 47.3667 241.882 46.7936C241.726 46.6436 241.549 46.5574 241.352 46.5351C241.141 46.4992 240.957 46.4062 240.8 46.2561C240.715 46.1742 240.682 46.1091 240.701 46.0607C240.723 45.9813 240.744 45.9019 240.766 45.8225C240.773 45.7295 240.758 45.6314 240.72 45.5285C240.699 45.4081 240.589 45.2525 240.39 45.0615Z" fill="#F11C29" fill-opacity="0.6"/>
<path d="M276.869 8.61118C277.167 8.89769 277.426 9.21213 277.643 9.55448C277.847 9.88319 278.049 10.2274 278.25 10.5871C278.437 10.9332 278.64 11.2775 278.858 11.6198C279.075 11.9622 279.327 12.2698 279.611 12.5427C279.725 12.6518 279.847 12.7523 279.977 12.844C280.11 12.9048 280.234 12.9898 280.347 13.0989C280.632 13.3718 280.844 13.6918 280.983 14.059C281.139 14.4088 281.263 14.7779 281.355 15.1661C281.435 15.5098 281.572 15.8081 281.766 16.0612C281.977 16.2968 282.188 16.5325 282.399 16.7682C282.627 16.9865 282.829 17.2308 283.007 17.5012C283.184 17.7716 283.298 18.0805 283.347 18.4279C283.456 18.5991 283.619 18.8558 283.837 19.1982C284.057 19.5095 284.183 19.7632 284.213 19.9592C284.225 20.0039 284.196 20.0765 284.127 20.177C284.058 20.2775 283.981 20.3867 283.895 20.5046C283.809 20.6224 283.729 20.7627 283.655 20.9252C283.581 21.0878 283.545 21.2534 283.547 21.4221C283.535 21.5772 283.568 21.7422 283.646 21.9171C283.724 22.092 283.794 22.2756 283.855 22.4679C283.916 22.6602 283.947 22.8562 283.946 23.0559C283.948 23.2247 283.874 23.3872 283.725 23.5435C283.575 23.6999 283.42 23.8184 283.261 23.8991C283.087 23.9661 282.921 24.04 282.761 24.1207C282.588 24.1877 282.428 24.2684 282.283 24.3627C282.138 24.4571 282.004 24.6115 281.88 24.8262C281.958 24.8014 282.046 24.8522 282.143 24.9787C282.226 25.0916 282.333 25.1939 282.463 25.2857C282.61 25.3601 282.792 25.3843 283.008 25.3582C283.224 25.332 283.482 25.1626 283.782 24.8499C283.932 24.6936 284.067 24.5391 284.186 24.3864C284.322 24.2164 284.45 24.0396 284.572 23.856C284.751 24.2951 284.842 24.6989 284.844 25.0674C284.831 25.4222 284.779 25.7894 284.688 26.1691C284.599 26.5177 284.501 26.8906 284.394 27.2876C284.288 27.6536 284.226 28.0606 284.206 28.5084C284.164 29.0357 284.039 29.4656 283.829 29.7982C283.636 30.1133 283.407 30.4943 283.142 30.941C282.842 31.4534 282.68 31.8647 282.655 32.1749C282.631 32.4851 282.583 32.8058 282.511 33.1371C282.439 33.4683 282.27 33.8573 282.006 34.304C281.772 34.747 281.289 35.3507 280.555 36.1151C279.889 36.81 279.201 37.4845 278.492 38.1385C277.799 38.7751 277.092 39.3981 276.371 40.0074C276.043 40.2928 275.743 40.5057 275.472 40.646C275.232 40.7825 274.986 40.8967 274.734 40.9886C274.496 41.0941 274.251 41.1928 273.999 41.2846C273.747 41.3765 273.453 41.5118 273.118 41.6906C272.942 41.7886 272.727 41.8991 272.472 42.022C272.232 42.1585 271.977 42.2969 271.706 42.4372C271.434 42.5774 271.18 42.7003 270.942 42.8058C270.69 42.8977 270.479 42.9617 270.308 42.9977C270.106 43.0374 269.93 43.0356 269.78 42.9922C269.633 42.9178 269.486 42.8434 269.339 42.769C269.178 42.681 269.022 42.6153 268.873 42.5719C268.725 42.4975 268.558 42.487 268.37 42.5404C268.092 42.7737 267.815 42.9915 267.539 43.1938C267.248 43.3824 266.951 43.5643 266.647 43.7393C266.424 43.6587 266.208 43.5849 265.999 43.518C265.792 43.42 265.577 43.3308 265.354 43.2502C264.939 43.285 264.567 43.3453 264.239 43.431C263.897 43.503 263.579 43.549 263.287 43.5689C262.995 43.5889 262.698 43.5709 262.396 43.5152C262.097 43.4284 261.775 43.2523 261.428 42.9869C261.009 42.6843 260.553 42.4475 260.062 42.2764C259.556 42.0917 259.049 41.9225 258.541 41.7688C258.05 41.5977 257.56 41.4111 257.071 41.209C256.599 40.9895 256.178 40.7024 255.808 40.3477C255.424 39.9793 255.124 39.5086 254.909 38.9355C253.843 38.8799 252.91 38.5855 252.111 38.0522C251.297 37.5053 250.542 36.8976 249.845 36.2291C249.617 36.0108 249.397 35.7993 249.183 35.5947C248.972 35.359 248.76 35.1388 248.547 34.9342C248.305 34.7023 248.054 34.5944 247.792 34.6106C247.533 34.5958 247.304 34.4929 247.105 34.3018C246.792 34.0017 246.537 33.6562 246.338 33.2655C246.156 32.8574 245.925 32.4858 245.645 32.151C245.4 32.3495 245.188 32.429 245.007 32.3893L244.972 32.2554C244.918 31.97 244.853 31.7244 244.777 31.5185C244.718 31.2952 244.642 31.1047 244.547 30.9472C244.452 30.7897 244.35 30.6253 244.242 30.4541C244.133 30.2829 244.011 30.0826 243.876 29.8531C243.426 29.1548 243.024 28.4353 242.669 27.6947C242.331 26.9368 241.977 26.1807 241.608 25.4265C241.171 24.5731 240.861 23.7426 240.68 22.9349C240.499 22.1273 240.528 21.1714 240.768 20.0672C240.852 19.5808 240.897 19.1069 240.903 18.6454C240.909 18.1839 240.805 17.7509 240.592 17.3465C240.619 17.2051 240.675 17.0754 240.76 16.9576C240.846 16.8397 240.939 16.7286 241.039 16.6244L241.239 16.4159C241.356 16.2943 241.457 16.1745 241.543 16.0566C241.631 15.9077 241.689 15.7471 241.718 15.5746C241.769 15.123 241.843 14.7607 241.941 14.4878C242.056 14.1974 242.28 13.8785 242.613 13.5311C242.847 13.2878 243.093 13.0738 243.352 12.8888C243.597 12.6903 243.858 12.4898 244.134 12.2876C244.146 12.1325 244.17 11.9222 244.206 11.6567C244.245 11.3602 244.301 11.1306 244.375 10.9681L244.439 11.0295C244.496 11.084 244.561 11.1299 244.635 11.1671C244.711 11.1733 244.791 11.133 244.874 11.0461C245.091 10.8203 245.256 10.5621 245.371 10.2718C245.486 9.98148 245.637 9.70975 245.825 9.45661C246.237 8.88456 246.614 8.27842 246.955 7.63817C247.282 6.98425 247.695 6.39672 248.195 5.87553C248.728 5.31959 249.323 4.75617 249.98 4.18532C250.654 3.59708 251.36 3.07398 252.1 2.61598C252.84 2.158 253.602 1.80485 254.386 1.55653C255.156 1.29456 255.912 1.21866 256.653 1.32889C256.985 1.38093 257.275 1.39201 257.522 1.36217C257.755 1.31868 257.981 1.26839 258.199 1.21126C258.404 1.14048 258.615 1.07655 258.834 1.01942C259.038 0.948645 259.287 0.903301 259.579 0.883387C260.208 0.853449 260.8 0.920281 261.353 1.08391C261.909 1.21651 262.504 1.23683 263.138 1.14485C263.913 1.02058 264.642 1.08617 265.325 1.34154C266.025 1.57958 266.625 1.93734 267.122 2.41485C267.279 2.56493 267.41 2.74106 267.517 2.94327C267.623 3.14545 267.762 3.32843 267.932 3.49215C268.075 3.62858 268.257 3.73708 268.48 3.81767C268.72 3.88087 268.975 3.94222 269.246 4.00171C269.517 4.06119 269.786 4.13617 270.055 4.22667C270.323 4.31717 270.559 4.4269 270.763 4.55587C271.197 4.87213 271.649 5.15549 272.119 5.40598C272.574 5.64283 273.044 5.89331 273.528 6.15745C274.145 6.48233 274.736 6.84878 275.3 7.25681C275.865 7.66482 276.387 8.11629 276.869 8.61118ZM272.645 12.7157C271.848 11.9516 270.976 11.2813 270.027 10.7046C269.094 10.1106 268.162 9.51661 267.23 8.92257C266.879 8.71919 266.5 8.57291 266.094 8.48367C265.705 8.37709 265.325 8.2463 264.955 8.09132C264.243 7.80863 263.539 7.51727 262.844 7.21721C262.148 6.91715 261.453 6.6171 260.758 6.31706C260.328 6.13852 259.824 6.12251 259.247 6.26906C258.655 6.40197 258.048 6.63659 257.425 6.97297C256.787 7.29569 256.144 7.69597 255.495 8.17377C254.847 8.62057 254.246 9.07728 253.689 9.5439C253.118 9.99687 252.608 10.4424 252.161 10.8805C251.716 11.2875 251.385 11.604 251.168 11.8298L251.472 11.4706L251.218 11.7777C250.852 12.1599 250.471 12.5285 250.076 12.8834C249.697 13.2209 249.325 13.5808 248.958 13.963C248.658 14.2757 248.38 14.6089 248.122 14.9626C247.868 15.2852 247.702 15.6432 247.625 16.0365C247.445 16.9645 247.277 17.8373 247.121 18.655C246.95 19.4589 246.984 20.292 247.222 21.1542C247.307 21.4358 247.334 21.6783 247.303 21.8818C247.257 22.0716 247.219 22.2683 247.187 22.4717C247.158 22.6442 247.152 22.8216 247.168 23.004C247.185 23.1864 247.29 23.4041 247.484 23.6571C247.813 24.1396 248.126 24.6395 248.422 25.1568C248.72 25.643 249.075 26.084 249.488 26.4796C249.929 26.9026 250.32 27.3777 250.661 27.9048C251.004 28.401 251.282 28.9511 251.494 29.5553C251.558 29.7165 251.615 29.871 251.664 30.0186C251.731 30.1489 251.821 30.2686 251.934 30.3777C252.148 30.5823 252.391 30.6989 252.664 30.7274C252.923 30.7422 253.109 30.8042 253.223 30.9133C253.28 30.9679 253.291 31.0281 253.255 31.0938C253.222 31.1286 253.194 31.1856 253.173 31.2651C253.153 31.3135 253.154 31.3978 253.176 31.5181C253.213 31.6211 253.325 31.7613 253.51 31.9386C253.922 32.3343 254.342 32.7368 254.768 33.1461C255.212 33.538 255.681 33.8884 256.177 34.1971C256.469 34.377 256.787 34.5152 257.131 34.6119C257.478 34.6776 257.772 34.8264 258.014 35.0583C258.17 35.2084 258.285 35.4019 258.358 35.6388C258.431 35.8758 258.553 36.0761 258.724 36.2398C258.923 36.4308 259.153 36.5182 259.415 36.502C259.662 36.4722 259.93 36.4628 260.22 36.4739C260.434 36.4788 260.666 36.5352 260.918 36.6431C261.172 36.7199 261.411 36.7986 261.634 36.8792C261.873 36.9424 262.084 36.9939 262.264 37.0335C262.444 37.0732 262.576 37.0496 262.66 36.9627C262.726 36.8932 262.778 36.8256 262.813 36.7598C262.835 36.6804 262.879 36.606 262.946 36.5365C263.279 36.189 263.657 36.0512 264.08 36.1231C264.505 36.1639 264.838 36.3003 265.08 36.5322C265.279 36.7232 265.516 36.8174 265.792 36.8149C266.053 36.7987 266.333 36.7496 266.63 36.6677C266.927 36.5857 267.224 36.5037 267.521 36.4218C267.82 36.3088 268.101 36.2442 268.362 36.228C268.792 36.2068 269.101 36.1695 269.289 36.1161C269.493 36.0454 269.66 35.9715 269.788 35.8946C269.902 35.804 270.008 35.722 270.106 35.6488C270.22 35.5582 270.395 35.4757 270.63 35.4012C270.927 35.3192 271.238 35.2509 271.564 35.1962C271.892 35.1105 272.205 35.0267 272.502 34.9448C273.331 34.7063 274.098 34.2912 274.802 33.6992C275.509 33.0762 276.171 32.4433 276.788 31.8005C277.038 31.5399 277.221 31.2489 277.338 30.9276C277.455 30.6062 277.565 30.2781 277.668 29.9431C277.757 29.5944 277.859 29.2594 277.977 28.9381C278.11 28.5993 278.31 28.291 278.577 28.013C278.794 27.7872 279.061 27.5935 279.38 27.4322C279.265 26.5551 279.234 25.7909 279.285 25.1395C279.336 24.4882 279.361 23.8784 279.36 23.3102C279.359 22.742 279.274 22.1763 279.104 21.6131C278.934 21.0499 278.571 20.4179 278.014 19.717C277.777 19.4231 277.611 19.0975 277.517 18.7402C277.425 18.3519 277.268 18.0176 277.045 17.7372C276.56 17.1046 276.032 16.5155 275.463 15.9697C274.911 15.4066 274.401 14.8001 273.932 14.1501C273.737 13.8971 273.535 13.6527 273.324 13.4171C273.113 13.1814 272.887 12.9476 272.645 12.7157Z" fill="#F11C29" fill-opacity="0.6"/>
</svg>
