<svg width="48" height="16" viewBox="0 0 48 16" fill="none" xmlns="http://www.w3.org/2000/svg">
<path d="M31.2574 0.0246582C27.8526 0.0246582 24.8099 1.83643 24.8099 5.18383C24.8099 9.02266 30.2062 9.2878 30.2062 11.2163C30.2062 12.0283 29.2998 12.7552 27.7516 12.7552C25.5545 12.7552 23.9124 11.7396 23.9124 11.7396L23.2098 15.1174C23.2098 15.1174 25.1015 15.9754 27.613 15.9754C31.3355 15.9754 34.2647 14.0746 34.2647 10.67C34.2647 6.6136 28.8459 6.35633 28.8459 4.56634C28.8459 3.93024 29.59 3.23327 31.1337 3.23327C32.8755 3.23327 34.2965 3.97194 34.2965 3.97194L34.9842 0.70947C34.9842 0.70947 33.4379 0.0246582 31.2574 0.0246582ZM0.106918 0.270883L0.0244751 0.763332C0.0244751 0.763332 1.45687 1.03247 2.74698 1.56933C4.40809 2.18496 4.52643 2.54334 4.80618 3.65647L7.85471 15.7215H11.9413L18.2369 0.270883H14.1597L10.1144 10.7758L8.46367 1.87134C8.31228 0.852232 7.54546 0.270883 6.60682 0.270883H0.106918ZM19.8764 0.270883L16.678 15.7215H20.566L23.7531 0.270883H19.8764ZM41.5609 0.270883C40.6234 0.270883 40.1266 0.786189 39.7621 1.68667L34.0661 15.7215H38.1432L38.9321 13.3823H43.8993L44.379 15.7215H47.9765L44.838 0.270883H41.5609ZM42.0912 4.44516L43.2997 10.243H40.0619L42.0912 4.44516Z" fill="white"/>
</svg>
