<svg width="55" height="18" viewBox="0 0 55 18" fill="none" xmlns="http://www.w3.org/2000/svg" xmlns:xlink="http://www.w3.org/1999/xlink">
<rect width="55" height="18" fill="url(#pattern0)"/>
<path d="M35.8152 0.027832C31.9139 0.027832 28.4275 2.06608 28.4275 5.8319C28.4275 10.1506 34.6107 10.4489 34.6107 12.6185C34.6107 13.532 33.5721 14.3497 31.7982 14.3497C29.2807 14.3497 27.3991 13.2071 27.3991 13.2071L26.594 17.0072C26.594 17.0072 28.7615 17.9724 31.6393 17.9724C35.9047 17.9724 39.261 15.8341 39.261 12.0039C39.261 7.44039 33.052 7.15097 33.052 5.13723C33.052 4.42162 33.9046 3.63752 35.6735 3.63752C37.6692 3.63752 39.2975 4.46853 39.2975 4.46853L40.0855 0.798245C40.0855 0.798245 38.3138 0.027832 35.8152 0.027832ZM0.121963 0.304835L0.0274963 0.858839C0.0274963 0.858839 1.66878 1.16162 3.14703 1.76559C5.05039 2.45817 5.18598 2.86135 5.50654 4.11362L8.99964 17.6867H13.6822L20.8959 0.304835H16.2242L11.5889 12.1229L9.6974 2.10535C9.52394 0.958852 8.64529 0.304835 7.56977 0.304835H0.121963ZM22.7745 0.304835L19.1097 17.6867H23.5646L27.2166 0.304835H22.7745ZM47.6213 0.304835C46.5471 0.304835 45.9779 0.884554 45.5602 1.8976L39.0335 17.6867H43.7052L44.6091 15.0552H50.3007L50.8503 17.6867H54.9725L51.3763 0.304835H47.6213ZM48.2289 5.00089L49.6137 11.5234H45.9037L48.2289 5.00089Z" fill="#23289F"/>
<defs>
<pattern id="pattern0" patternContentUnits="objectBoundingBox" width="1" height="1">
<use xlink:href="#image0_39:1256" transform="translate(0 0.00347222) scale(0.00125 0.00381944)"/>
</pattern>
</defs>
</svg>
