<?xml version="1.0" encoding="utf-8"?>
<!-- Generator: Adobe Illustrator 23.1.0, SVG Export Plug-In . SVG Version: 6.00 Build 0)  -->
<svg version="1.1" id="Capa_2" xmlns="http://www.w3.org/2000/svg" xmlns:xlink="http://www.w3.org/1999/xlink" x="0px" y="0px"
	 viewBox="0 0 1500 1500" style="enable-background:new 0 0 1500 1500;" xml:space="preserve">
<path d="M970.6,734.9h-0.8c-7.4-109.8-95-197.4-204.8-204.8v-0.8h-15c0,0-0.1,0-0.1,0c0,0-0.1,0-0.1,0h-15v0.8
	c-109.8,7.4-197.4,95-204.8,204.8h-0.8v14.9c0,0,0,0.1,0,0.1s0,0.1,0,0.1v15h0.8c7.4,109.8,95,197.4,204.8,204.8v0.8h30.1v-0.8
	c109.8-7.4,197.4-95,204.8-204.8h0.8V734.9z M939.7,734.9h-59.5c-2-39-11.2-74.3-22.7-103.9c11.5-6.2,20.5-12.1,26.4-16.3
	C915.5,646,936,688.1,939.7,734.9z M734.9,734.9h-81.4c1.9-33.1,9.7-63.4,19.5-89.3c17.9,6.8,38.7,12.2,61.9,13.8V734.9z
	 M734.9,765.1v75.7c-22.8,1.8-43.5,7.3-61.3,14c-10-25.7-18.1-56.1-20-89.7H734.9z M765.1,765.1h85c-2,33.8-10.1,64.5-20.3,90.3
	c-18.5-7.2-40.4-13.2-64.7-14.8V765.1z M765.1,734.9v-75.7c24.3-2,46.3-8,64.9-15.4c10.1,26.3,18.2,57.3,20.1,91.1H765.1z
	 M845.4,603.3c-4.4-9.1-8.8-17.4-13.1-24.8c9.7,4.7,18.9,10,27.5,16.2C855.8,597.2,851,600.2,845.4,603.3z M786.4,563.1
	c6.5,8.9,19.1,27.4,31.5,53c-15.4,6-33.3,10.9-52.8,12.8v-68.6C772.3,560.8,779.4,561.7,786.4,563.1z M734.9,629.2
	c-18.5-1.5-35.3-5.9-50-11.4c13-27.1,26.3-46.6,32.8-55.3c5.7-1,11.4-1.7,17.2-2.2V629.2z M657.3,605.3c-6.9-3.7-12.8-7.3-17.4-10.4
	c10.2-7.3,21.2-13.6,32.8-18.8C667.7,584.5,662.5,594.4,657.3,605.3z M615.9,614.9c6.4,4.7,16.4,11.4,29.4,18.3
	c-11.1,29.1-20,63.7-21.9,101.8h-63.1C564,688.2,584.5,646.1,615.9,614.9z M560.3,765.1h63.1c2,38.6,11,73.2,22.4,102.1
	c-13.2,6.8-23.4,13.5-29.8,18.1C584.5,854,564,811.9,560.3,765.1z M658.1,894.9c5.6,11.4,11.3,21.5,16.6,30.1
	c-12.3-5.3-23.8-11.9-34.6-19.6C645,902.2,651,898.6,658.1,894.9z M720.7,938c-3.8-4.7-19.5-24.8-34.8-55.5
	c14.5-5.4,31.1-9.7,49-11.4v68.6C730.1,939.3,725.4,938.7,720.7,938z M765.1,870.8c19.5,1.6,37.2,6.4,52.4,12.3
	c-14.7,29.4-29.7,48.8-34.1,54.3c-6,1.1-12.1,1.9-18.3,2.4V870.8z M845,895.9c6,3.3,11,6.5,15.1,9.2c-9.3,6.6-19.2,12.4-29.7,17.3
	C835.1,914.7,840.1,905.8,845,895.9z M884.1,885.1c-5.9-4.4-15-10.5-26.7-16.8c11.6-29.1,20.9-64.2,22.9-103.2h59.5
	C936,811.8,915.5,853.9,884.1,885.1z"/>
</svg>
